<svg width="28" height="30" viewBox="0 0 28 30" fill="none" xmlns="http://www.w3.org/2000/svg">
<path d="M10.1403 18.58C9.50032 19.2 8.81032 19.93 8.08032 20.79C6.30032 22.85 4.7103 23.89 3.3103 23.89C2.5703 23.89 1.92032 23.63 1.33032 23.11C0.750322 22.59 0.460327 21.95 0.460327 21.19C0.460327 19.1 2.32035 17.72 6.05035 17.06C8.26035 16.68 10.4403 15.96 12.6003 14.89C11.4603 14.13 9.31034 13.49 6.16034 12.97C2.29034 12.35 0.360352 10.94 0.360352 8.73C0.360352 7.87 0.650347 7.21 1.23035 6.74C1.81035 6.27 2.52034 6.03 3.35034 6.03C4.75034 6.03 6.19034 6.96 7.66034 8.81C9.53034 11.18 11.3403 12.92 13.0703 14.01C12.8603 11.8 12.2904 9.37 11.3604 6.71C10.8604 5.33 10.6104 4.31 10.6104 3.65C10.6104 2.51 10.9204 1.62 11.5504 0.98C12.1704 0.32 12.8603 0 13.5903 0C14.4003 0 15.0903 0.34 15.6703 1.03C16.2503 1.72 16.5403 2.6 16.5403 3.66C16.5403 4.35 16.2903 5.33 15.7903 6.61C14.8403 9.03 14.2703 11.49 14.0803 13.98C15.2403 13.2 16.8203 11.7 18.8203 9.49C20.8803 7.19 22.7003 6.04 24.2703 6.04C25.0503 6.04 25.7103 6.29 26.2303 6.8C26.7503 7.31 27.0103 7.9 27.0103 8.56C27.0103 9.56 26.5803 10.45 25.7103 11.25C24.8403 12.04 22.9303 12.72 19.9603 13.26C17.6303 13.69 15.8603 14.22 14.6503 14.86C16.7103 15.86 18.9803 16.59 21.4503 17.07C23.3703 17.43 24.7803 17.91 25.6703 18.53C26.5603 19.15 27.0003 20.05 27.0003 21.23C27.0003 22.06 26.7303 22.72 26.1803 23.21C25.6303 23.7 24.9803 23.94 24.2203 23.94C22.7503 23.94 20.9403 22.69 18.8103 20.2C17.1503 18.25 15.5703 16.77 14.0703 15.75C14.2403 18.12 14.6903 20.33 15.4203 22.37C16.1103 24.32 16.4503 25.65 16.4503 26.36C16.4503 27.55 16.1203 28.45 15.4503 29.06C14.7803 29.68 14.0703 29.99 13.3103 29.99C12.6203 29.99 11.9803 29.68 11.3903 29.05C10.8003 28.42 10.5003 27.51 10.5003 26.33C10.5003 25.59 10.7203 24.56 11.1803 23.23C12.1103 20.43 12.7203 17.94 13.0303 15.75L10.1104 18.56L10.1403 18.58Z" fill="#667056"/>
</svg>
