<svg width="74" height="83" viewBox="0 0 74 83" fill="none" xmlns="http://www.w3.org/2000/svg">
<g clip-path="url(#clip0_4040_326)">
<path d="M58.6154 78.1978H38.0748C37.5536 78.1978 37.1255 77.7688 37.1255 77.2465C37.1255 76.7243 37.5536 76.2953 38.0748 76.2953H58.6154C61.1003 76.2953 63.12 74.2716 63.12 71.7816V51.4512C63.12 50.929 63.5481 50.5 64.0693 50.5C64.5905 50.5 65.0186 50.929 65.0186 51.4512V71.7816C65.0186 75.3161 62.152 78.1978 58.6154 78.1978Z" fill="#858B70" stroke="#858B70" stroke-width="0.5" stroke-miterlimit="10"/>
<path d="M24.0958 78.1974H6.63589C3.10853 78.1974 0.232666 75.3251 0.232666 71.7813V6.64958C0.232666 3.10576 3.09922 0.233398 6.63589 0.233398H58.6155C62.1429 0.233398 65.0187 3.10576 65.0187 6.64958V28.5373C65.0187 29.0596 64.5906 29.4886 64.0694 29.4886C63.5482 29.4886 63.1201 29.0596 63.1201 28.5373V6.64958C63.1201 4.15958 61.1005 2.13587 58.6155 2.13587H6.63589C4.15092 2.13587 2.1313 4.15958 2.1313 6.64958V71.7906C2.1313 74.2806 4.15092 76.3043 6.63589 76.3043H24.0958C24.617 76.3043 25.0451 76.7333 25.0451 77.2555C25.0451 77.7778 24.617 78.2068 24.0958 78.2068V78.1974Z" fill="#858B70" stroke="#858B70" stroke-width="0.5" stroke-miterlimit="10"/>
<path d="M14.2956 20.6286C11.0567 20.6286 8.42285 17.9894 8.42285 14.744C8.42285 11.4986 11.0567 8.85938 14.2956 8.85938C14.8168 8.85938 15.2449 9.28836 15.2449 9.81061C15.2449 10.3329 14.8168 10.7618 14.2956 10.7618C12.1084 10.7618 10.3215 12.5431 10.3215 14.744C10.3215 16.9449 12.0991 18.7261 14.2956 18.7261C16.492 18.7261 18.2697 16.9449 18.2697 14.744C18.2697 14.0818 18.1021 13.429 17.795 12.8508C17.5437 12.3939 17.7112 11.8157 18.1766 11.5639C18.6326 11.3121 19.2097 11.4799 19.461 11.9462C19.9263 12.8042 20.1683 13.7741 20.1683 14.7533C20.1683 17.9987 17.5344 20.6379 14.2956 20.6379V20.6286Z" fill="#858B70" stroke="#858B70" stroke-width="0.5" stroke-miterlimit="10"/>
<path d="M14.4538 17.365C14.2025 17.365 13.9605 17.2624 13.7837 17.0852L11.6989 14.9963C11.3266 14.6232 11.3266 14.0264 11.6989 13.6533C12.0712 13.2803 12.6668 13.2803 13.0391 13.6533L14.4538 15.0709L19.2469 10.2681C19.6192 9.89502 20.2148 9.89502 20.5871 10.2681C20.9594 10.6411 20.9594 11.2379 20.5871 11.611L15.1239 17.0852C14.947 17.2624 14.7051 17.365 14.4538 17.365Z" fill="#858B70" stroke="#858B70" stroke-width="0.5" stroke-miterlimit="10"/>
<path d="M55.1999 15.6954H24.9986C24.4774 15.6954 24.0493 15.2665 24.0493 14.7442C24.0493 14.222 24.4774 13.793 24.9986 13.793H55.1999C55.7211 13.793 56.1492 14.222 56.1492 14.7442C56.1492 15.2665 55.7211 15.6954 55.1999 15.6954Z" fill="#858B70" stroke="#858B70" stroke-width="0.5" stroke-miterlimit="10"/>
<path d="M55.1999 32.799H24.9986C24.4774 32.799 24.0493 32.37 24.0493 31.8477C24.0493 31.3255 24.4774 30.8965 24.9986 30.8965H55.1999C55.7211 30.8965 56.1492 31.3255 56.1492 31.8477C56.1492 32.37 55.7211 32.799 55.1999 32.799Z" fill="#858B70" stroke="#858B70" stroke-width="0.5" stroke-miterlimit="10"/>
<path d="M14.2956 54.818C11.0567 54.818 8.42285 52.1788 8.42285 48.9334C8.42285 45.688 11.0567 43.0488 14.2956 43.0488C17.5344 43.0488 20.1683 45.688 20.1683 48.9334C20.1683 52.1788 17.5344 54.818 14.2956 54.818ZM14.2956 44.9606C12.1084 44.9606 10.3215 46.7419 10.3215 48.9428C10.3215 51.1437 12.0991 52.9249 14.2956 52.9249C16.492 52.9249 18.2697 51.1437 18.2697 48.9428C18.2697 46.7419 16.492 44.9606 14.2956 44.9606Z" fill="#858B70" stroke="#858B70" stroke-width="0.5" stroke-miterlimit="10"/>
<path d="M39.0615 49.8937H24.9986C24.4774 49.8937 24.0493 49.4647 24.0493 48.9424C24.0493 48.4202 24.4774 47.9912 24.9986 47.9912H39.0615C39.5827 47.9912 40.0108 48.4202 40.0108 48.9424C40.0108 49.4647 39.5827 49.8937 39.0615 49.8937Z" fill="#858B70" stroke="#858B70" stroke-width="0.5" stroke-miterlimit="10"/>
<path d="M14.2956 71.9216C11.0567 71.9216 8.42285 69.2823 8.42285 66.0369C8.42285 62.7916 11.0567 60.1523 14.2956 60.1523C17.5344 60.1523 20.1683 62.7916 20.1683 66.0369C20.1683 69.2823 17.5344 71.9216 14.2956 71.9216ZM14.2956 62.0641C12.1084 62.0641 10.3215 63.8454 10.3215 66.0463C10.3215 68.2472 12.0991 70.0284 14.2956 70.0284C16.492 70.0284 18.2697 68.2472 18.2697 66.0463C18.2697 63.8454 16.492 62.0641 14.2956 62.0641Z" fill="#858B70" stroke="#858B70" stroke-width="0.5" stroke-miterlimit="10"/>
<path d="M14.2956 37.7233C11.0567 37.7233 8.42285 35.0841 8.42285 31.8387C8.42285 28.5933 11.0567 25.9541 14.2956 25.9541C14.8168 25.9541 15.2449 26.3831 15.2449 26.9053C15.2449 27.4276 14.8168 27.8566 14.2956 27.8566C12.1084 27.8566 10.3215 29.6378 10.3215 31.8387C10.3215 34.0396 12.0991 35.8208 14.2956 35.8208C16.492 35.8208 18.2697 34.0396 18.2697 31.8387C18.2697 31.1766 18.1021 30.5238 17.795 29.9456C17.5437 29.4886 17.7112 28.9104 18.1766 28.6586C18.6326 28.4068 19.2097 28.5747 19.461 29.041C19.9263 29.8989 20.1683 30.8688 20.1683 31.848C20.1683 35.0934 17.5344 37.7326 14.2956 37.7326V37.7233Z" fill="#858B70" stroke="#858B70" stroke-width="0.5" stroke-miterlimit="10"/>
<path d="M14.4538 34.4685C14.2118 34.4685 13.9698 34.3753 13.7837 34.1888L11.6989 32.0998C11.3266 31.7267 11.3266 31.1299 11.6989 30.7569C12.0712 30.3838 12.6668 30.3838 13.0391 30.7569L14.4538 32.1744L19.2469 27.3716C19.6192 26.9985 20.2148 26.9985 20.5871 27.3716C20.9594 27.7446 20.9594 28.3415 20.5871 28.7145L15.1239 34.1888C14.9377 34.3753 14.6957 34.4685 14.4538 34.4685Z" fill="#858B70" stroke="#858B70" stroke-width="0.5" stroke-miterlimit="10"/>
<path d="M24.3565 82.7669C23.7515 82.7669 23.1559 82.5337 22.6905 82.0768C21.8064 81.1908 21.7692 79.764 22.6068 78.8314L23.7609 77.5444C24.1145 77.1527 24.7102 77.1247 25.1011 77.4698C25.492 77.8242 25.5199 78.421 25.1755 78.8127L24.0215 80.0997C23.8632 80.2769 23.8632 80.5567 24.0401 80.7245C24.2076 80.8924 24.4868 80.9017 24.6636 80.7432L25.948 79.5868C26.3389 79.2324 26.9345 79.2697 27.2882 79.6614C27.6419 80.0531 27.6046 80.6499 27.2138 81.0043L25.9294 82.1607C25.4827 82.5617 24.9149 82.7669 24.3565 82.7669Z" fill="#858B70" stroke="#858B70" stroke-width="0.5" stroke-miterlimit="10"/>
<path d="M69.1511 41.5746C68.9091 41.5746 68.6671 41.4813 68.481 41.2948C68.1087 40.9218 68.1087 40.3249 68.481 39.9519L71.5337 36.893C71.9897 36.436 71.9897 35.6993 71.5337 35.2517L69.421 33.1347C68.9649 32.6777 68.2297 32.6777 67.783 33.1347L64.7303 36.1936C64.358 36.5666 63.7623 36.5666 63.39 36.1936C63.0178 35.8205 63.0178 35.2237 63.39 34.8506L66.4427 31.7918C67.634 30.5981 69.5792 30.5981 70.7705 31.7918L72.8832 33.9087C74.0745 35.1024 74.0745 37.0422 72.8832 38.2452L69.8305 41.3041C69.6444 41.4906 69.4024 41.5839 69.1604 41.5839L69.1511 41.5746Z" fill="#858B70" stroke="#858B70" stroke-width="0.5" stroke-miterlimit="10"/>
<path d="M27.493 81.5449C26.9719 81.5449 26.46 81.377 26.0225 81.0599C25.9202 80.9853 25.8271 80.9014 25.7433 80.8175L23.9471 79.0176C23.8633 78.9336 23.7795 78.831 23.7051 78.7285C23.2025 78.0383 23.0815 77.1524 23.3887 76.3504L25.5386 70.8108C25.7247 70.3259 26.2831 70.0834 26.7671 70.2699C27.2511 70.4564 27.493 71.016 27.3069 71.5009L25.157 77.0405C25.0825 77.227 25.1105 77.4322 25.2314 77.6C25.2501 77.628 25.2687 77.6467 25.2873 77.6653L27.0835 79.4652C27.0835 79.4652 27.1208 79.5025 27.1487 79.5212C27.3069 79.6424 27.521 79.6704 27.7071 79.5958L33.2355 77.4415C33.7194 77.255 34.2778 77.4881 34.464 77.9824C34.6501 78.4673 34.4175 79.0269 33.9242 79.2134L28.3958 81.3677C28.098 81.4796 27.8002 81.5355 27.493 81.5355V81.5449Z" fill="#858B70" stroke="#858B70" stroke-width="0.5" stroke-miterlimit="10"/>
<path d="M35.2458 80.0254C34.3988 80.0254 33.5984 79.699 33.0028 79.0928L25.6689 71.7441C24.431 70.5037 24.431 68.4894 25.6689 67.249L59.1275 33.7226C59.7232 33.1258 60.5236 32.79 61.3705 32.79C62.2175 32.79 63.0179 33.1164 63.6135 33.7226L70.9474 41.0714C72.1853 42.3117 72.1853 44.3261 70.9474 45.5664L37.4887 79.0928C36.8931 79.6897 36.0927 80.0254 35.2458 80.0254ZM61.3705 34.6925C61.0262 34.6925 60.7097 34.8231 60.4677 35.0655L27.0091 68.5919C26.5158 69.0862 26.5158 69.8976 27.0091 70.4012L34.343 77.7499C34.585 77.9924 34.9014 78.123 35.2458 78.123C35.5901 78.123 35.9066 77.9924 36.1485 77.7499L69.6072 44.2235C70.1005 43.7293 70.1005 42.9179 69.6072 42.4143L62.2733 35.0655C62.0313 34.8231 61.7149 34.6925 61.3705 34.6925Z" fill="#858B70" stroke="#858B70" stroke-width="0.5" stroke-miterlimit="10"/>
<path d="M57.0242 52.3175C55.8329 52.3175 54.6509 51.8605 53.7481 50.9559C51.9891 49.1934 51.9239 46.377 53.5992 44.5398L62.8503 34.3653C63.204 33.9736 63.7997 33.9456 64.1905 34.3C64.5814 34.6544 64.6094 35.2512 64.2557 35.6429L55.0045 45.8174C54.018 46.8992 54.0552 48.5685 55.0883 49.6037C56.1214 50.6389 57.7873 50.6762 58.8669 49.6876L65.1119 43.9895C65.5028 43.6352 66.0985 43.6631 66.4521 44.0548C66.8058 44.4465 66.7779 45.0434 66.387 45.3977L60.142 51.0958C59.2578 51.9072 58.1317 52.3082 57.0242 52.3082V52.3175Z" fill="#858B70" stroke="#858B70" stroke-width="0.5" stroke-miterlimit="10"/>
</g>
<defs>
<clipPath id="clip0_4040_326">
<rect width="74" height="83" fill="white"/>
</clipPath>
</defs>
</svg>
