<svg width="99" height="62" viewBox="0 0 99 62" fill="none" xmlns="http://www.w3.org/2000/svg">
<path d="M96.3094 11.6058H95.8948V9.03502C95.8948 7.45935 94.6139 6.17853 93.0383 6.17853H89.1037V3.18383C89.1037 1.97673 88.127 1 86.9199 1H83.2801C82.073 1 81.0963 1.97673 81.0963 3.18383V6.17853H65.5699C63.9942 6.17853 62.7134 7.45935 62.7134 9.03502V11.6058H62.2988C61.3036 11.6058 60.502 12.4167 60.502 13.4027V17.9362C60.502 18.9313 61.3128 19.733 62.2988 19.733H62.7964L64.3813 36.531L64.9433 42.4467L66.4637 58.4891C66.5927 59.8068 67.68 60.8019 69.0069 60.8019H89.6013C90.9282 60.8019 92.0155 59.8068 92.1445 58.4891L93.6649 42.4467L94.2269 36.531L95.8118 19.733H96.3094C97.3046 19.733 98.1062 18.9221 98.1062 17.9362V13.4027C98.1062 12.4075 97.2953 11.6058 96.3094 11.6058ZM82.8194 3.18383C82.8194 2.92582 83.0313 2.7231 83.2801 2.7231H86.9199C87.1779 2.7231 87.3806 2.93504 87.3806 3.18383V6.17853H82.8102V3.18383H82.8194ZM64.4458 9.0258C64.4458 8.39922 64.9525 7.89241 65.5791 7.89241H93.0475C93.6741 7.89241 94.1809 8.39922 94.1809 9.0258V11.5966H64.455V9.0258H64.4458ZM92.08 40.9263L92.0247 41.5068H66.5835L66.1873 37.305H92.4209L92.08 40.9263ZM90.4306 58.3325C90.3937 58.7655 90.0343 59.088 89.6013 59.088H69.0069C68.5738 59.088 68.2145 58.7655 68.1776 58.3325L66.7494 43.2299H91.8588L90.4306 58.3325ZM92.5868 35.5911H66.0306L64.5287 19.733H94.0887L92.5868 35.5911ZM96.3923 17.9362C96.3923 17.9362 96.3555 18.0191 96.3094 18.0191H62.2988C62.2988 18.0191 62.2158 17.9823 62.2158 17.9362V13.4027C62.2158 13.4027 62.2527 13.3197 62.2988 13.3197H96.3094C96.3094 13.3197 96.3923 13.3566 96.3923 13.4027V17.9362Z" fill="#F1831D" stroke="#F1831D" stroke-width="0.89" stroke-miterlimit="10"/>
<path d="M58.5201 27.3995C58.5201 27.3995 58.5201 27.3903 58.5201 27.3811C58.5201 27.3534 58.5201 27.335 58.5109 27.3074C58.5109 27.3074 58.5109 27.289 58.5109 27.2797C58.5109 27.2613 58.5109 27.2429 58.5017 27.2337C58.5017 27.2337 58.5017 27.2153 58.5017 27.206C58.5017 27.1876 58.4832 27.16 58.474 27.1415C58.474 27.1415 58.474 27.1231 58.4648 27.1231C58.4648 27.1047 58.4464 27.0955 58.4464 27.077C58.4464 27.077 58.4464 27.0586 58.4372 27.0494C58.4279 27.031 58.4187 27.0125 58.4095 27.0033C58.4095 27.0033 58.4095 27.0033 58.4095 26.9941C58.345 26.902 56.7693 24.6076 53.747 21.963C51.9778 20.415 50.0612 19.0697 48.0709 17.9547C45.5738 16.5633 42.9384 15.5405 40.2386 14.9231C40.0911 14.8863 39.9345 14.8955 39.7963 14.9415L35.2535 16.3514C34.498 14.2597 32.6182 12.6932 30.3422 12.4168C30.1303 10.3988 30.6463 9.46815 31.0333 9.07193C31.2453 8.85078 31.319 8.5375 31.236 8.24263C31.0517 7.60684 30.2501 7.41333 29.7986 7.89248C29.6604 8.03991 29.5129 8.21499 29.3839 8.41771C28.7297 9.41288 28.4809 10.7582 28.6376 12.4444C25.7811 12.9052 23.588 15.3931 23.588 18.3786C23.588 18.6366 23.6065 18.8854 23.6341 19.1342L3.86905 25.2618C2.91074 25.5566 2.09987 26.1464 1.51014 26.9572C0.929629 27.7497 0.634766 28.7172 0.634766 29.7032V42.4744C0.634766 43.359 0.9112 44.1975 1.42721 44.8978V52.122V57.5954C1.42721 59.3738 2.87388 60.8204 4.65228 60.8204H55.3411C57.1195 60.8204 58.5662 59.3738 58.5662 57.5954V52.122V27.4917C58.5662 27.4917 58.5662 27.4917 58.5662 27.4825C58.5662 27.464 58.5662 27.4364 58.5662 27.418L58.5201 27.3995ZM4.53249 46.5564C4.53249 46.5564 4.53249 46.5564 4.5417 46.5564C4.56935 46.5564 4.59699 46.5564 4.62463 46.5564H4.64306C4.67992 46.5564 4.70756 46.5564 4.74442 46.5564C6.97432 46.5288 8.78958 44.6675 8.78958 42.4099V37.2959C8.78958 35.9506 9.85846 34.854 11.1761 34.854C11.3328 34.854 11.4986 34.8725 11.6461 34.9001C11.9317 34.9554 12.1989 35.0567 12.4385 35.2134C12.5952 35.3055 12.7426 35.4254 12.8716 35.5544C13.3231 36.0059 13.5719 36.6048 13.5719 37.2498V43.4235C13.5719 44.5292 14.005 45.5613 14.7882 46.3445C14.908 46.4643 15.0278 46.5749 15.166 46.667C15.1844 46.6854 15.2121 46.7039 15.2305 46.7223C15.2305 46.7223 15.2305 46.7223 15.2397 46.7315C15.2581 46.7499 15.2858 46.7591 15.3042 46.7776C15.3042 46.7776 15.3134 46.7776 15.3226 46.7868C15.3411 46.8052 15.3687 46.8144 15.3871 46.8329C15.3871 46.8329 15.4056 46.8421 15.4056 46.8513C15.424 46.8605 15.4424 46.8789 15.4701 46.8881C15.4701 46.8881 15.4885 46.8974 15.4977 46.9066C15.5161 46.9158 15.5346 46.9342 15.553 46.9434C15.553 46.9434 15.5714 46.9526 15.5806 46.9618C15.5991 46.9711 15.6175 46.9803 15.6359 46.9987C15.6451 46.9987 15.6544 47.0079 15.6636 47.0172C15.682 47.0264 15.7004 47.0356 15.7189 47.0448C15.7281 47.0448 15.7373 47.054 15.7465 47.0632C15.7649 47.0724 15.7834 47.0816 15.8018 47.0909C15.811 47.0909 15.8202 47.1001 15.8294 47.1093C15.8479 47.1185 15.8663 47.1277 15.8847 47.1369C15.8939 47.1369 15.9032 47.1462 15.9216 47.1554C15.94 47.1554 15.9584 47.1738 15.9769 47.183C15.9861 47.183 16.0045 47.1922 16.0137 47.2014C16.0322 47.2014 16.0506 47.2199 16.069 47.2291C16.0782 47.2291 16.0967 47.2383 16.1059 47.2475C16.1243 47.2475 16.1427 47.2659 16.1612 47.2659C16.1704 47.2659 16.1888 47.2751 16.198 47.2844C16.2164 47.2844 16.2349 47.2936 16.2533 47.3028C16.2625 47.3028 16.2809 47.312 16.2902 47.312C16.3086 47.312 16.327 47.3212 16.3454 47.3305C16.3547 47.3305 16.3731 47.3304 16.3823 47.3396C16.4007 47.3396 16.4192 47.3489 16.4376 47.3581C16.4468 47.3581 16.4652 47.3581 16.4744 47.3673C16.4929 47.3673 16.5113 47.3765 16.5297 47.3857C16.5389 47.3857 16.5574 47.3857 16.5666 47.3949C16.585 47.3949 16.6035 47.4042 16.6219 47.4134C16.6403 47.4134 16.6495 47.4134 16.668 47.4226C16.6864 47.4226 16.7048 47.4226 16.7232 47.4318C16.7417 47.4318 16.7509 47.4318 16.7693 47.441C16.7877 47.441 16.8062 47.441 16.8246 47.4502C16.843 47.4502 16.8522 47.4502 16.8707 47.4502C16.8891 47.4502 16.9075 47.4502 16.926 47.4594C16.9444 47.4594 16.9536 47.4594 16.972 47.4594C16.9905 47.4594 17.0089 47.4594 17.0273 47.4594C17.0457 47.4594 17.055 47.4594 17.0734 47.4594C17.0918 47.4594 17.1102 47.4594 17.1287 47.4594C17.1471 47.4594 17.1563 47.4594 17.1747 47.4594C17.1932 47.4594 17.2116 47.4594 17.23 47.4594C17.2485 47.4594 17.2577 47.4594 17.2761 47.4594C17.2945 47.4594 17.313 47.4594 17.3314 47.4594C17.3498 47.4594 17.359 47.4594 17.3775 47.4594C17.3959 47.4594 17.4143 47.4594 17.4328 47.4594C17.4512 47.4594 17.4696 47.4594 17.4788 47.4594C17.4973 47.4594 17.5157 47.4594 17.5341 47.4594C17.5525 47.4594 17.571 47.4594 17.5894 47.4594C17.6078 47.4594 17.6263 47.4594 17.6447 47.4594C17.6447 47.4594 17.6631 47.4594 17.6723 47.4594C17.6908 47.4594 17.7092 47.4594 17.7276 47.4594C18.4832 47.4502 19.1927 47.2291 19.8009 46.8513C20.9803 46.1233 21.782 44.7964 21.782 43.3037V35.7847C21.782 34.4394 22.8509 33.3429 24.1685 33.3429C24.2146 33.3429 24.2607 33.3429 24.3068 33.3429C24.703 33.3613 25.0808 33.4811 25.4125 33.6838C25.5784 33.7852 25.7258 33.9049 25.8732 34.0432C26.0575 34.2275 26.2049 34.4394 26.3247 34.6605C26.3892 34.7803 26.4353 34.9001 26.4722 35.0291C26.5367 35.2503 26.5735 35.4899 26.5735 35.7294V42.3362C26.5735 44.5937 28.3888 46.4551 30.6187 46.4827C31.7244 46.5011 32.7656 46.0773 33.5581 45.3033C34.3413 44.5292 34.7744 43.488 34.7744 42.3823C34.7744 41.2765 35.1338 40.2814 35.8064 39.4429C35.917 39.3139 36.0276 39.1848 36.1474 39.0558C36.2579 38.9453 36.3685 38.8439 36.4791 38.7518C37.3084 38.0607 38.3404 37.6829 39.4369 37.6829C40.0082 37.729 45.5 38.0607 48.4947 35.2318C48.6606 35.0752 48.8173 34.9186 48.9555 34.7435C49.9598 33.564 50.4482 32.0897 50.4021 30.3297C50.4021 30.2468 50.4021 30.1547 50.3929 30.0717C50.3929 30.0625 50.3929 30.0533 50.3929 30.0441C50.3929 29.9704 50.3837 29.8967 50.3745 29.8229C50.3745 29.8045 50.3745 29.7953 50.3745 29.7769C50.3745 29.6939 50.3561 29.6202 50.3469 29.5373C50.3376 29.4544 50.3284 29.3714 50.31 29.2885C50.31 29.2701 50.31 29.2609 50.31 29.2424C50.3008 29.1779 50.2916 29.1134 50.2731 29.0489C50.2731 29.0305 50.2731 29.0121 50.2639 28.9936C50.2455 28.9199 50.2363 28.8462 50.2179 28.7725C50.2179 28.7725 50.2179 28.7725 50.2179 28.7633C50.181 28.5882 50.1349 28.4223 50.0889 28.2473H56.8154V51.1729H3.10424V46.1602C3.55575 46.3537 4.03491 46.4643 4.5417 46.4827L4.53249 46.5564ZM40.0451 16.637C45.6843 17.9823 49.9506 20.9494 52.5491 23.2162C54.0419 24.5154 55.1752 25.7409 55.9216 26.6163H49.407C49.0845 26.0174 48.6975 25.4461 48.2367 24.9208C48.2367 24.9208 48.2275 24.9116 48.2183 24.9024C48.1907 24.8656 48.163 24.8379 48.1262 24.801C48.117 24.7918 48.1077 24.7826 48.0985 24.7642C48.0709 24.7273 48.034 24.6997 48.0064 24.6628C48.0064 24.6628 48.0064 24.6628 47.9972 24.6536C47.9603 24.6168 47.9327 24.5799 47.8958 24.543C47.4535 24.0915 46.9191 23.5755 46.2556 23.0134C46.2556 23.0134 46.2556 23.0134 46.2464 23.0134C46.2096 22.9858 46.1819 22.9582 46.1451 22.9305C46.1451 22.9305 46.1266 22.9213 46.1266 22.9121C46.099 22.8844 46.0621 22.8568 46.0253 22.8292C46.0161 22.8292 46.0068 22.8107 45.9976 22.8015C45.97 22.7739 45.9331 22.7462 45.9055 22.7278C45.8963 22.7186 45.8778 22.7094 45.8686 22.7001C45.841 22.6725 45.8041 22.6541 45.7765 22.6264C45.758 22.6172 45.7488 22.5988 45.7304 22.5896C45.7028 22.5619 45.6751 22.5435 45.6383 22.5158C45.6198 22.5066 45.6014 22.4882 45.5922 22.479C45.5645 22.4606 45.5369 22.4329 45.5093 22.4145C45.4908 22.3961 45.4724 22.3869 45.454 22.3684C45.4263 22.35 45.3987 22.3224 45.371 22.3039C45.325 22.2671 45.2789 22.2302 45.2328 22.1934C45.2144 22.1841 45.2052 22.1657 45.1868 22.1565C45.1499 22.1289 45.113 22.1012 45.0854 22.0736C45.067 22.0644 45.0485 22.0459 45.0393 22.0367C45.0025 22.0091 44.9748 21.9814 44.938 21.963C44.9195 21.9538 44.9011 21.9354 44.8827 21.9261C44.8458 21.8985 44.8182 21.8708 44.7813 21.8524C44.7629 21.8432 44.7445 21.8248 44.726 21.8156C44.6892 21.7879 44.6523 21.7603 44.6247 21.7418C44.6062 21.7326 44.5878 21.7142 44.5694 21.705C44.5325 21.6774 44.4957 21.6497 44.4588 21.622C44.4404 21.6128 44.4219 21.5944 44.4035 21.5852C44.3667 21.5576 44.3298 21.5299 44.2929 21.5023C44.2745 21.4931 44.2561 21.4746 44.2469 21.4654C44.21 21.4378 44.1639 21.4101 44.1271 21.3825C44.1087 21.3733 44.0994 21.364 44.081 21.3456C44.0349 21.318 43.9889 21.2811 43.952 21.2535C43.9428 21.2535 43.9244 21.235 43.9152 21.2258C43.8691 21.189 43.8138 21.1521 43.7677 21.1245C43.7677 21.1245 43.7493 21.1152 43.7493 21.106C43.5097 20.9402 43.2609 20.7743 43.0029 20.5992C42.9476 20.5624 42.8831 20.5163 42.8186 20.4795C42.8094 20.4795 42.8002 20.4703 42.791 20.461C42.7357 20.4242 42.6804 20.3873 42.6251 20.3505C42.6159 20.3505 42.5975 20.332 42.5791 20.3228C42.5238 20.286 42.4777 20.2583 42.4224 20.2215C42.404 20.2122 42.3948 20.203 42.3763 20.1938C42.321 20.157 42.275 20.1293 42.2197 20.0925C42.2013 20.0833 42.1828 20.074 42.1644 20.0556C42.1091 20.0187 42.063 19.9911 42.0078 19.9542C41.9893 19.945 41.9709 19.9358 41.9525 19.9174C41.8972 19.8805 41.8511 19.8529 41.7958 19.816C41.7774 19.8068 41.759 19.7976 41.7405 19.7884C41.6852 19.7515 41.63 19.7239 41.5747 19.687C41.5562 19.6778 41.547 19.6686 41.5286 19.6594C41.4641 19.6225 41.4088 19.5856 41.3443 19.5488C41.3351 19.5488 41.3259 19.5396 41.3075 19.5304C41.0863 19.4014 40.8652 19.2631 40.6348 19.1249C40.6164 19.1157 40.5887 19.0973 40.5703 19.0881C40.515 19.0604 40.4689 19.0236 40.4137 18.9959C40.386 18.9775 40.3492 18.9591 40.3215 18.9407C40.2754 18.913 40.2294 18.8854 40.1833 18.8669C40.1464 18.8485 40.1096 18.8208 40.0727 18.8024C40.0359 18.7748 39.9898 18.7564 39.9529 18.7287C39.9161 18.7103 39.87 18.6826 39.8331 18.6642C39.7963 18.6458 39.7594 18.6181 39.7226 18.5997C39.6765 18.5721 39.6304 18.5536 39.5936 18.526C39.5567 18.5076 39.5199 18.4891 39.4922 18.4707C39.4461 18.4431 39.4001 18.4154 39.3448 18.3878C39.3171 18.3694 39.2803 18.3509 39.2526 18.3325C39.1973 18.3049 39.1513 18.2772 39.096 18.2496C39.0683 18.2311 39.0407 18.2219 39.0223 18.2035C38.967 18.1758 38.9025 18.139 38.8472 18.1113C38.8288 18.1113 38.8103 18.0929 38.8011 18.0837C38.4049 17.8718 37.9995 17.6598 37.5756 17.4387L40.0727 16.6647L40.0451 16.637ZM29.559 14.0662C31.6323 14.0662 33.3646 15.5313 33.77 17.4848C33.77 17.494 33.77 17.5032 33.77 17.5216C33.77 17.5493 33.7792 17.5769 33.7884 17.5953C33.7884 17.6138 33.7884 17.623 33.7884 17.6414C33.7884 17.6691 33.7884 17.6875 33.7977 17.7151C33.7977 17.7335 33.7977 17.752 33.7977 17.7704C33.7977 17.8073 33.7977 17.8349 33.8069 17.8718C33.8069 17.8994 33.8069 17.9178 33.8069 17.9455C33.8069 17.9639 33.8069 17.9823 33.8069 18.0008C33.8069 18.0284 33.8069 18.0468 33.8069 18.0745C33.8069 18.0929 33.8069 18.1113 33.8069 18.1298C33.8069 18.1574 33.8069 18.1758 33.8069 18.2035C33.8069 18.2219 33.8069 18.2403 33.8069 18.2588C33.8069 18.2956 33.8069 18.3233 33.8069 18.3601C33.8069 18.3601 33.8069 18.3786 33.8069 18.3878C33.8069 19.3184 33.512 20.1754 33.0144 20.8757C32.2312 21.9722 30.9504 22.6909 29.5037 22.6909C29.4484 22.6909 29.3839 22.6909 29.3286 22.6909C29.3286 22.6909 29.3286 22.6909 29.3194 22.6909C28.656 22.6633 28.0294 22.4882 27.4765 22.1841C27.4765 22.1841 27.4765 22.1841 27.4673 22.1841C27.4212 22.1657 27.3844 22.1381 27.3383 22.1104C27.3199 22.1104 27.3107 22.092 27.2922 22.0828C27.2646 22.0643 27.237 22.0459 27.2001 22.0275C27.1725 22.0091 27.1448 21.9906 27.108 21.9722C27.0987 21.9722 27.0895 21.9538 27.0803 21.9538C26.3155 21.4378 25.7258 20.673 25.4217 19.7884C25.4217 19.7792 25.4217 19.7699 25.4125 19.7607C25.4033 19.7239 25.3848 19.6778 25.3756 19.6409C25.3756 19.6133 25.3572 19.5857 25.348 19.558C25.2466 19.1894 25.1913 18.8024 25.1913 18.4062C25.1913 16.0289 27.1172 14.1031 29.4945 14.1031L29.559 14.0662ZM2.3118 29.6479C2.3118 28.3763 3.13189 27.2705 4.33898 26.8927L24.0487 20.7835C24.5095 21.834 25.2466 22.7094 26.1681 23.3452C26.1865 23.3544 26.1957 23.3636 26.2141 23.382C26.2418 23.4004 26.2694 23.4189 26.2971 23.4373C26.3339 23.4557 26.3708 23.4834 26.4077 23.5018C26.4261 23.5018 26.4353 23.5202 26.4537 23.5294C26.509 23.5663 26.5643 23.594 26.6196 23.6308C26.6196 23.6308 26.638 23.6308 26.638 23.64C27.4397 24.0915 28.3519 24.3588 29.3286 24.3956C29.3286 24.3956 29.3471 24.3956 29.3563 24.3956C29.43 24.3956 29.4945 24.3956 29.5682 24.3956C31.5862 24.3956 33.383 23.3912 34.4703 21.8616C35.1706 20.8757 35.5853 19.6778 35.5853 18.3786C35.5853 18.3693 35.5853 18.3509 35.5853 18.3417C36.3685 18.7195 37.0964 19.0973 37.7875 19.4659C37.8705 19.5119 37.9534 19.558 38.0363 19.5949C38.0547 19.6041 38.0732 19.6133 38.0916 19.6225C38.1561 19.6594 38.2206 19.6962 38.2851 19.7239C38.3128 19.7423 38.3404 19.7607 38.3773 19.77C38.4325 19.7976 38.4786 19.8252 38.5339 19.8529C38.5708 19.8713 38.6076 19.899 38.6445 19.9174C38.6905 19.945 38.7274 19.9634 38.7735 19.9911C38.8195 20.0187 38.8656 20.0372 38.9117 20.0648C38.9486 20.0833 38.9762 20.1017 39.0131 20.1201C39.0591 20.1477 39.1144 20.1754 39.1605 20.203C39.1881 20.2215 39.2158 20.2307 39.2434 20.2491C39.2987 20.2767 39.354 20.3136 39.4093 20.3412C39.4277 20.3505 39.4553 20.3689 39.4738 20.3781C39.5291 20.415 39.5844 20.4426 39.6396 20.4795C39.6581 20.4887 39.6765 20.4979 39.6949 20.5163C39.7502 20.5532 39.8147 20.5808 39.87 20.6177C39.8884 20.6177 39.8976 20.6361 39.9161 20.6453C39.9806 20.6822 40.0359 20.719 40.0911 20.7559C40.1004 20.7559 40.1188 20.7743 40.128 20.7835C40.1925 20.8204 40.2478 20.8573 40.3123 20.8941C40.3215 20.8941 40.3307 20.9033 40.3492 20.9125C40.4137 20.9494 40.4689 20.9862 40.5334 21.0231C40.5334 21.0231 40.5519 21.0323 40.5611 21.0416C40.6256 21.0784 40.6809 21.1153 40.7454 21.1521C40.7454 21.1521 40.7638 21.1613 40.773 21.1705C40.8375 21.2074 40.8928 21.2443 40.9573 21.2811C40.9573 21.2811 40.9757 21.2811 40.9757 21.2903C41.0402 21.3272 41.0955 21.364 41.16 21.4009C41.16 21.4009 41.1692 21.4009 41.1785 21.4101C41.243 21.447 41.2982 21.4838 41.3627 21.5207C41.3627 21.5207 41.372 21.5207 41.3812 21.5299C41.4365 21.5668 41.501 21.6036 41.5562 21.6405C41.5562 21.6405 41.5655 21.6405 41.5747 21.6497C41.63 21.6865 41.6945 21.7234 41.7497 21.7603C41.7497 21.7603 41.759 21.7603 41.7682 21.7695C41.8235 21.8063 41.8788 21.8432 41.9433 21.88C41.9433 21.88 41.9525 21.8801 41.9617 21.8893C42.017 21.9261 42.0723 21.963 42.1275 21.9998C42.1275 21.9998 42.1368 21.9998 42.146 22.0091C42.2013 22.0459 42.2565 22.0828 42.3118 22.1196C42.3118 22.1196 42.321 22.1196 42.3303 22.1289C42.3856 22.1657 42.4408 22.2026 42.4869 22.2394C42.4869 22.2394 42.4961 22.2394 42.5053 22.2486C42.5606 22.2855 42.6067 22.3224 42.662 22.3592C42.662 22.3592 42.6804 22.3684 42.6804 22.3776C42.7265 22.4145 42.7818 22.4514 42.8278 22.479C42.8278 22.479 42.8463 22.4882 42.8463 22.4974C42.8923 22.5343 42.9384 22.5619 42.9937 22.5988C42.9937 22.5988 43.0121 22.608 43.0213 22.6172C43.0674 22.6541 43.1135 22.6817 43.1596 22.7186C43.1688 22.7186 43.178 22.7278 43.1872 22.737C43.2333 22.7647 43.2794 22.8015 43.3162 22.8292C43.3254 22.8292 43.3346 22.8476 43.3439 22.8476C43.3899 22.8752 43.4268 22.9121 43.4729 22.9397C43.4821 22.9397 43.5005 22.9582 43.5097 22.9674C43.5466 22.995 43.5926 23.0227 43.6295 23.0503C43.6387 23.0595 43.6571 23.0687 43.6664 23.0779C43.7032 23.1056 43.7401 23.1332 43.7769 23.1609C43.7954 23.1701 43.8046 23.1793 43.823 23.1885C43.8599 23.2162 43.8967 23.2438 43.9244 23.2714C43.9428 23.2807 43.952 23.2991 43.9704 23.3083C43.9981 23.336 44.0349 23.3544 44.0626 23.382C44.081 23.3912 44.0994 23.4097 44.1179 23.4189C44.1455 23.4373 44.1732 23.465 44.2008 23.4834C44.2192 23.5018 44.2377 23.511 44.2561 23.5294C44.2837 23.5479 44.3114 23.5663 44.339 23.594C44.3574 23.6124 44.3851 23.6308 44.4035 23.6492C44.4312 23.6677 44.4496 23.6861 44.4772 23.7045C44.5049 23.723 44.5233 23.7414 44.551 23.7598C44.5694 23.7782 44.5878 23.7875 44.6062 23.8059C44.6339 23.8243 44.6615 23.8519 44.6892 23.8704C44.7076 23.8796 44.726 23.898 44.7352 23.9072C44.7629 23.9349 44.7905 23.9533 44.8274 23.981C44.8366 23.9902 44.855 23.9994 44.8642 24.0086C44.9011 24.0363 44.9287 24.0639 44.9656 24.0915C44.9656 24.0915 44.984 24.11 44.9932 24.11C45.0301 24.1376 45.067 24.1745 45.1038 24.2021C45.1038 24.2021 45.1038 24.2021 45.113 24.2113C45.7673 24.7642 46.2925 25.2618 46.7164 25.6949C47.3153 26.3122 47.7852 27.0125 48.1354 27.7773C48.3197 28.192 48.4671 28.6251 48.5685 29.0674C48.5685 29.0674 48.5685 29.0766 48.5685 29.0858C48.5777 29.1318 48.5869 29.1779 48.5961 29.224C48.5961 29.2332 48.5961 29.2424 48.5961 29.2516C48.5961 29.2977 48.6145 29.3346 48.6238 29.3806C48.6238 29.3899 48.6238 29.4083 48.6238 29.4175C48.6238 29.4636 48.6422 29.5004 48.6422 29.5465C48.6422 29.5557 48.6422 29.5741 48.6422 29.5834C48.6422 29.6294 48.6514 29.6755 48.6606 29.7216V29.74C48.6882 29.9612 48.7067 30.1915 48.7159 30.4127C48.7528 31.7395 48.4118 32.8176 47.6839 33.6654C47.5825 33.7852 47.4719 33.9049 47.3522 34.0155C44.8182 36.4113 39.6212 36.0059 39.5659 36.0059C39.5659 36.0059 39.5199 36.0059 39.4922 36.0059C37.935 36.0059 36.4699 36.5587 35.3088 37.5631C35.189 37.6645 35.0785 37.775 34.9679 37.8856C34.8481 38.0054 34.7283 38.1344 34.6177 38.2634C33.6318 39.4152 33.0974 40.8711 33.0974 42.4099C33.0974 43.0549 32.8486 43.6631 32.3878 44.1146C32.3602 44.1422 32.3326 44.1699 32.2957 44.1975C32.2773 44.2067 32.2681 44.2252 32.2496 44.2344C31.8073 44.6122 31.2545 44.8149 30.6647 44.8057C29.3655 44.7872 28.3058 43.6907 28.3058 42.3638V35.7571C28.3058 35.453 28.269 35.1489 28.2045 34.854C28.0847 34.338 27.8728 33.8404 27.5595 33.4074C27.4212 33.2139 27.2738 33.0388 27.108 32.8637C26.9513 32.7071 26.7854 32.5689 26.6104 32.4399C26.1036 32.0713 25.5231 31.8317 24.9057 31.7211C24.6753 31.6843 24.4358 31.6658 24.1962 31.6658C21.9386 31.6658 20.105 33.5364 20.105 35.8124V43.3314C20.105 44.1699 19.6903 44.907 19.0545 45.3493C18.6767 45.6073 18.2252 45.764 17.7368 45.7732C17.7368 45.7732 17.7368 45.7732 17.7276 45.7732C17.4051 45.7732 17.101 45.7179 16.8154 45.5981C16.5205 45.4783 16.2533 45.3033 16.0322 45.0821C15.5714 44.6306 15.3226 44.0224 15.3226 43.3774V37.2037C15.3226 36.1072 14.8988 35.0752 14.1248 34.3012C13.3968 33.5732 12.4385 33.1494 11.4157 33.1033C11.3788 33.1033 11.3512 33.1033 11.3143 33.1033C11.3143 33.1033 11.3143 33.1033 11.3051 33.1033C11.2775 33.1033 11.2498 33.1033 11.2222 33.1033H11.2038C8.94622 33.1033 7.11254 34.9738 7.11254 37.2498V42.3638C7.11254 43.6907 6.05288 44.7872 4.75364 44.8057C4.75364 44.8057 4.67071 44.8057 4.62463 44.8057C4.61542 44.8057 4.59699 44.8057 4.58778 44.8057C4.56013 44.8057 4.52327 44.8057 4.49563 44.8057C4.48642 44.8057 4.4772 44.8057 4.45877 44.8057C4.42191 44.8057 4.39427 44.8057 4.35741 44.7965C4.35741 44.7965 4.33898 44.7965 4.32977 44.7965C4.29291 44.7965 4.25605 44.7872 4.2192 44.778C4.2192 44.778 4.2192 44.778 4.20998 44.778C4.17312 44.778 4.12705 44.7596 4.09019 44.7504C3.79533 44.6767 3.52811 44.5385 3.27932 44.3634C3.27932 44.3634 3.27011 44.3634 3.26089 44.3542C3.23325 44.3357 3.2056 44.3173 3.18718 44.2897C3.17796 44.2804 3.16875 44.2712 3.15032 44.262C3.13189 44.2436 3.11346 44.2252 3.09503 44.2067C3.08582 44.1975 3.06739 44.1791 3.05817 44.1699C3.03974 44.1514 3.02131 44.133 3.00289 44.1146C2.99367 44.1054 2.97524 44.087 2.96603 44.0777C2.9476 44.0593 2.92917 44.0409 2.91074 44.0132C2.52373 43.5802 2.3118 43.0181 2.3118 42.4283V29.611V29.6479ZM55.3042 59.0973H4.61542C3.7769 59.0973 3.10424 58.4154 3.10424 57.5861V52.9605H56.8246V57.5861C56.8246 58.4247 56.1428 59.0973 55.3135 59.0973H55.3042Z" fill="#F1831D" stroke="#F1831D" stroke-width="0.89" stroke-miterlimit="10"/>
</svg>
