<svg width="272" height="58" viewBox="0 0 272 58" fill="none" xmlns="http://www.w3.org/2000/svg">
<g clip-path="url(#clip0_3_440)">
<path d="M15.74 1.79001C21.37 1.79001 25.15 7.39001 25.15 15.65C25.15 23.91 21.33 29.88 15.66 29.88C9.99002 29.88 6.02002 24.1 6.02002 15.8C6.02002 7.50001 10.18 1.79001 15.74 1.79001ZM15.56 29.66C18.82 29.66 21.23 23.84 21.23 15.5C21.23 7.16001 18.97 1.97001 15.71 1.97001C12.45 1.97001 9.93002 7.42001 9.93002 15.76C9.93002 24.1 12.26 29.66 15.56 29.66Z" fill="white" stroke="white" stroke-width="0.46" stroke-miterlimit="10"/>
<path d="M41.21 1.97001C38.76 1.97001 36.95 4.75001 38.32 6.97001C38.28 8.93001 36.95 9.97001 35.5 9.97001C34.05 9.97001 33.02 8.86001 33.02 7.19001C33.02 3.89001 37.06 1.82001 41.25 1.82001C45.88 1.82001 48.7 4.45001 48.7 8.71001C48.7 12.38 46.59 14.79 43.88 15.64C47.47 16.01 50.26 18.64 50.26 22.46C50.26 26.91 46.52 29.8 41.48 29.8C37.22 29.8 33.03 27.76 33.03 24.39C33.03 22.76 34.03 21.68 35.51 21.68C36.99 21.68 38.29 22.68 38.33 24.68C36.96 26.9 38.89 29.65 41.55 29.65C44.21 29.65 46.37 26.91 46.37 23.53C46.37 18.56 41.85 16.01 37.96 16.01V15.6C41.85 15.6 44.82 13.04 44.82 7.85001C44.82 4.63001 43.67 1.96001 41.22 1.96001L41.21 1.97001Z" fill="white" stroke="white" stroke-width="0.46" stroke-miterlimit="10"/>
<path d="M70.6101 37.48V0.230011H71.0201V37.48H70.6101Z" fill="white" stroke="white" stroke-width="0.46" stroke-miterlimit="10"/>
<path d="M103.49 26.36C104.57 26.36 105.97 26.03 106.94 25.58L107.64 25.17L106.86 29.47H91.1799V28.69C91.1799 20.72 104.08 13.31 104.08 5.97002C104.08 3.75002 102.93 1.97002 100.82 1.97002C98.1499 1.97002 96.2999 4.75002 97.6699 6.97002C97.6299 8.93002 96.2999 9.97002 94.8499 9.97002C93.3999 9.97002 92.3699 8.86002 92.3699 7.23002C92.3699 3.93002 96.4799 1.82002 100.52 1.82002C105.04 1.78002 107.97 4.45002 107.97 8.19002C107.97 16.97 92.1799 22.16 91.8099 26.35H103.48L103.49 26.36Z" fill="white" stroke="white" stroke-width="0.46" stroke-miterlimit="10"/>
<path d="M128.47 5.27002H118.68C117.57 5.27002 116.2 5.60002 115.2 6.12002L114.5 6.45002L115.28 2.15002H130.74C124.66 11.27 122.73 17.27 122.1 29.47H121.4C119.14 29.47 117.99 27.99 118.62 25.8C120.99 17.28 123.62 11.86 128.48 5.27002H128.47Z" fill="white" stroke="white" stroke-width="0.46" stroke-miterlimit="10"/>
<path d="M149.53 37.48V0.230011H149.94V37.48H149.53Z" fill="white" stroke="white" stroke-width="0.46" stroke-miterlimit="10"/>
<path d="M182.41 26.36C183.49 26.36 184.89 26.03 185.86 25.58L186.56 25.17L185.78 29.47H170.1V28.69C170.1 20.72 183 13.31 183 5.97002C183 3.75002 181.85 1.97002 179.74 1.97002C177.07 1.97002 175.22 4.75002 176.59 6.97002C176.55 8.93002 175.22 9.97002 173.77 9.97002C172.32 9.97002 171.29 8.86002 171.29 7.23002C171.29 3.93002 175.4 1.82002 179.44 1.82002C183.96 1.78002 186.89 4.45002 186.89 8.19002C186.89 16.97 171.1 22.16 170.73 26.35H182.4L182.41 26.36Z" fill="white" stroke="white" stroke-width="0.46" stroke-miterlimit="10"/>
<path d="M204.46 1.79001C210.09 1.79001 213.87 7.39001 213.87 15.65C213.87 23.91 210.05 29.88 204.38 29.88C198.71 29.88 194.74 24.1 194.74 15.8C194.74 7.50001 198.89 1.79001 204.45 1.79001H204.46ZM204.28 29.66C207.54 29.66 209.95 23.84 209.95 15.5C209.95 7.16001 207.69 1.97001 204.43 1.97001C201.17 1.97001 198.65 7.42001 198.65 15.76C198.65 24.1 200.98 29.66 204.28 29.66Z" fill="white" stroke="white" stroke-width="0.46" stroke-miterlimit="10"/>
<path d="M233.89 26.36C234.97 26.36 236.37 26.03 237.34 25.58L238.04 25.17L237.26 29.47H221.58V28.69C221.58 20.72 234.48 13.31 234.48 5.97002C234.48 3.75002 233.33 1.97002 231.22 1.97002C228.55 1.97002 226.7 4.75002 228.07 6.97002C228.03 8.93002 226.7 9.97002 225.25 9.97002C223.8 9.97002 222.77 8.86002 222.77 7.23002C222.77 3.93002 226.88 1.82002 230.92 1.82002C235.44 1.78002 238.37 4.45002 238.37 8.19002C238.37 16.97 222.58 22.16 222.21 26.35H233.88L233.89 26.36Z" fill="white" stroke="white" stroke-width="0.46" stroke-miterlimit="10"/>
<path d="M263.36 7.09001C263.36 8.87001 262.36 9.98001 260.88 9.98001C259.4 9.98001 258.1 8.94001 258.06 6.98001C259.43 4.76001 258.62 1.98001 255.69 1.98001C251.47 1.98001 250.17 7.69001 250.17 14.92C250.17 16.14 250.21 17.14 250.28 18.14C251.17 14.36 253.5 12.32 256.95 12.32C261.47 12.32 264.77 15.88 264.77 20.88C264.77 26.22 261.17 29.89 256.21 29.89C249.91 29.89 246.28 23.92 246.28 15.1C246.28 7.24001 249.17 1.79001 255.99 1.79001C260.29 1.79001 263.37 3.94001 263.37 7.09001H263.36ZM256.17 29.66C259.02 29.66 260.88 26.18 260.88 21.84C260.88 16.91 258.47 13.09 255.73 13.09C253.32 13.09 250.91 15.83 250.43 19.58C250.73 22.21 252.06 29.66 256.18 29.66H256.17Z" fill="white" stroke="white" stroke-width="0.46" stroke-miterlimit="10"/>
<path d="M4.38999 48C2.61999 48 0.89999 48.98 0.89999 51.85C0.89999 54.25 2.50999 55.34 4.44999 55.34C5.63999 55.34 6.53999 54.66 6.97999 54.17C7.05999 54.09 7.08999 54.06 7.20999 54.06C7.37999 54.06 7.47999 54.18 7.47999 54.32C7.47999 54.46 7.34999 54.64 7.27999 54.72C6.75999 55.32 5.72999 55.95 4.40999 55.95C2.12999 55.95 0.23999 54.55 0.23999 51.85C0.23999 48.71 2.30999 47.39 4.39999 47.39C6.00999 47.39 7.14999 48.25 7.14999 49.41C7.14999 49.91 6.91999 50.31 6.65999 50.31C6.48999 50.31 6.37999 50.22 6.37999 50.08C6.37999 49.96 6.48999 49.92 6.48999 49.5C6.51999 48.57 5.58999 48 4.39999 48H4.38999Z" fill="white" stroke="white" stroke-width="0.46" stroke-miterlimit="10"/>
<path d="M12.5401 53.98L11.7901 55.64C11.7301 55.75 11.6801 55.85 11.4001 55.85C11.2001 55.85 11.1101 55.73 11.1101 55.59C11.1101 55.55 11.1401 55.48 11.1401 55.48L14.6901 47.76C14.7901 47.55 14.8601 47.44 15.1201 47.44C15.3701 47.44 15.4801 47.58 15.5401 47.74L19.1001 55.48C19.1001 55.48 19.1301 55.57 19.1301 55.64C19.1301 55.71 19.1301 55.85 18.8401 55.85C18.6101 55.85 18.5001 55.74 18.4501 55.64L17.7001 53.98H12.5201H12.5401ZM12.8201 53.36H17.4501L15.1401 48.23L12.8301 53.36H12.8201Z" fill="white" stroke="white" stroke-width="0.46" stroke-miterlimit="10"/>
<path d="M29.01 55.14C29.1 55.14 29.15 55.25 29.15 55.35C29.15 55.65 28.77 55.84 28.34 55.84C27.33 55.84 26.66 53.69 25.4 52.98C25.04 53.05 24.68 53.07 24.31 53.07C24.01 53.07 23.92 52.96 23.92 52.78C23.92 52.52 24.01 52.48 24.17 52.48C26.04 52.48 27.85 51.75 27.85 50.08C27.85 48.41 26.58 48.11 24.56 48.11H23.67V55.59C23.67 55.59 23.67 55.85 23.34 55.85C23.01 55.85 23.01 55.59 23.01 55.59V47.73C23.01 47.6 23.1 47.51 23.23 47.51H24.56C26.96 47.51 28.52 48.09 28.52 50.11C28.52 51.49 27.52 52.39 26.21 52.8C27.31 53.62 27.9 55.18 28.6 55.18C28.9 55.18 28.92 55.15 29.01 55.15V55.14Z" fill="white" stroke="white" stroke-width="0.46" stroke-miterlimit="10"/>
<path d="M35.3599 48.11V55.59C35.3599 55.59 35.3599 55.85 35.0299 55.85C34.6999 55.85 34.6999 55.59 34.6999 55.59V48.11H32.1799C32.1799 48.11 31.9199 48.11 31.9199 47.81C31.9199 47.51 32.1799 47.5 32.1799 47.5H37.8999C37.8999 47.5 38.1599 47.5 38.1599 47.81C38.1599 48.12 37.8999 48.11 37.8999 48.11H35.3799H35.3599Z" fill="white" stroke="white" stroke-width="0.46" stroke-miterlimit="10"/>
<path d="M41.89 53.98L41.14 55.64C41.08 55.75 41.03 55.85 40.75 55.85C40.55 55.85 40.46 55.73 40.46 55.59C40.46 55.55 40.49 55.48 40.49 55.48L44.04 47.76C44.14 47.55 44.21 47.44 44.47 47.44C44.72 47.44 44.83 47.58 44.89 47.74L48.45 55.48C48.45 55.48 48.48 55.57 48.48 55.64C48.48 55.71 48.48 55.85 48.19 55.85C47.96 55.85 47.85 55.74 47.8 55.64L47.05 53.98H41.87H41.89ZM42.17 53.36H46.8L44.49 48.23L42.18 53.36H42.17Z" fill="white" stroke="white" stroke-width="0.46" stroke-miterlimit="10"/>
<path d="M56.1601 55.33C57.6101 55.33 58.6901 54.4 58.6901 53.92V52.71H56.8901C56.8901 52.71 56.6301 52.69 56.6301 52.4C56.6301 52.11 56.8901 52.1 56.8901 52.1H59.1401C59.2701 52.1 59.3601 52.19 59.3601 52.32V53.92C59.3601 54.7 57.9301 55.96 56.1201 55.96C53.8801 55.96 52.0601 54.56 52.0601 51.86C52.0601 48.72 54.1301 47.4 56.2201 47.4C57.8301 47.4 58.9701 48.26 58.9701 49.42C58.9701 49.92 58.7401 50.32 58.4901 50.32C58.3501 50.32 58.2001 50.28 58.2001 50.1C58.2001 49.98 58.3101 49.93 58.3101 49.51C58.3401 48.58 57.4101 48.02 56.2201 48.02C54.4501 48.02 52.7301 48.99 52.7301 51.86C52.7301 54.26 54.2701 55.34 56.1701 55.34L56.1601 55.33Z" fill="white" stroke="white" stroke-width="0.46" stroke-miterlimit="10"/>
<path d="M69.0199 55.23C69.0199 55.23 69.2799 55.25 69.2799 55.54C69.2799 55.83 69.0199 55.84 69.0199 55.84H63.9099C63.7799 55.84 63.6899 55.75 63.6899 55.62V47.72C63.6899 47.59 63.7799 47.5 63.9099 47.5H68.6899C68.6899 47.5 68.9499 47.52 68.9499 47.8C68.9499 48.08 68.6899 48.12 68.6899 48.12H64.3399V52.25H68.0299C68.0299 52.25 68.2899 52.27 68.2899 52.55C68.2899 52.83 68.0299 52.86 68.0299 52.86H64.3399V55.23H69.0099H69.0199Z" fill="white" stroke="white" stroke-width="0.46" stroke-miterlimit="10"/>
<path d="M73.84 47.7L79.45 54.57V47.75C79.45 47.62 79.48 47.49 79.77 47.49C80.04 47.49 80.06 47.61 80.06 47.75V55.46C80.06 55.74 80.02 55.84 79.84 55.84C79.67 55.84 79.62 55.74 79.52 55.62L73.89 48.79V55.59C73.89 55.78 73.78 55.85 73.54 55.85C73.34 55.85 73.27 55.78 73.27 55.59V47.86C73.27 47.68 73.3 47.5 73.5 47.5C73.59 47.5 73.68 47.51 73.83 47.7H73.84Z" fill="white" stroke="white" stroke-width="0.46" stroke-miterlimit="10"/>
<path d="M85.3399 53.98L84.5899 55.64C84.5299 55.75 84.4799 55.85 84.1999 55.85C83.9999 55.85 83.9099 55.73 83.9099 55.59C83.9099 55.55 83.9399 55.48 83.9399 55.48L87.4899 47.76C87.5899 47.55 87.6599 47.44 87.9199 47.44C88.1699 47.44 88.2799 47.58 88.3399 47.74L91.8999 55.48C91.8999 55.48 91.9299 55.57 91.9299 55.64C91.9299 55.71 91.9299 55.85 91.6399 55.85C91.4099 55.85 91.2999 55.74 91.2499 55.64L90.4999 53.98H85.3199H85.3399ZM85.6199 53.36H90.2499L87.9399 48.23L85.6299 53.36H85.6199Z" fill="white" stroke="white" stroke-width="0.46" stroke-miterlimit="10"/>
<path d="M100.85 55.84C100.72 55.84 100.63 55.75 100.63 55.62V47.72C100.63 47.59 100.72 47.5 100.85 47.5H103.41C106 47.5 107.88 48.57 107.88 51.58C107.88 53.9 106.83 55.84 103.71 55.84H100.85ZM103.71 55.23C106.35 55.23 107.23 53.62 107.23 51.58C107.23 48.95 105.65 48.11 103.41 48.11H101.3V55.23H103.71Z" fill="white" stroke="white" stroke-width="0.46" stroke-miterlimit="10"/>
<path d="M117.43 55.23C117.43 55.23 117.69 55.25 117.69 55.54C117.69 55.83 117.43 55.84 117.43 55.84H112.32C112.19 55.84 112.1 55.75 112.1 55.62V47.72C112.1 47.59 112.19 47.5 112.32 47.5H117.1C117.1 47.5 117.36 47.52 117.36 47.8C117.36 48.08 117.1 48.12 117.1 48.12H112.75V52.25H116.44C116.44 52.25 116.7 52.27 116.7 52.55C116.7 52.83 116.44 52.86 116.44 52.86H112.75V55.23H117.42H117.43Z" fill="white" stroke="white" stroke-width="0.46" stroke-miterlimit="10"/>
<path d="M127.59 55.59C127.59 55.59 127.59 55.85 127.26 55.85C126.93 55.85 126.93 55.59 126.93 55.59V47.76C126.93 47.76 126.93 47.5 127.26 47.5C127.59 47.5 127.59 47.76 127.59 47.76V55.59Z" fill="white" stroke="white" stroke-width="0.46" stroke-miterlimit="10"/>
<path d="M132.6 47.7L138.21 54.57V47.75C138.21 47.62 138.24 47.49 138.53 47.49C138.8 47.49 138.82 47.61 138.82 47.75V55.46C138.82 55.74 138.78 55.84 138.6 55.84C138.43 55.84 138.38 55.74 138.28 55.62L132.65 48.79V55.59C132.65 55.78 132.54 55.85 132.3 55.85C132.1 55.85 132.03 55.78 132.03 55.59V47.86C132.03 47.68 132.06 47.5 132.26 47.5C132.35 47.5 132.44 47.51 132.59 47.7H132.6Z" fill="white" stroke="white" stroke-width="0.46" stroke-miterlimit="10"/>
<path d="M143.49 55.84C143.36 55.84 143.27 55.75 143.27 55.62V47.72C143.27 47.59 143.36 47.5 143.49 47.5H146.05C148.64 47.5 150.52 48.57 150.52 51.58C150.52 53.9 149.47 55.84 146.35 55.84H143.49ZM146.35 55.23C148.99 55.23 149.87 53.62 149.87 51.58C149.87 48.95 148.29 48.11 146.05 48.11H143.94V55.23H146.35Z" fill="white" stroke="white" stroke-width="0.46" stroke-miterlimit="10"/>
<path d="M155.41 55.59C155.41 55.59 155.41 55.85 155.08 55.85C154.75 55.85 154.75 55.59 154.75 55.59V47.76C154.75 47.76 154.75 47.5 155.08 47.5C155.41 47.5 155.41 47.76 155.41 47.76V55.59Z" fill="white" stroke="white" stroke-width="0.46" stroke-miterlimit="10"/>
<path d="M160.69 53.98L159.94 55.64C159.88 55.75 159.83 55.85 159.55 55.85C159.35 55.85 159.26 55.73 159.26 55.59C159.26 55.55 159.29 55.48 159.29 55.48L162.84 47.76C162.94 47.55 163.01 47.44 163.27 47.44C163.52 47.44 163.63 47.58 163.69 47.74L167.25 55.48C167.25 55.48 167.28 55.57 167.28 55.64C167.28 55.71 167.28 55.85 166.99 55.85C166.76 55.85 166.65 55.74 166.6 55.64L165.85 53.98H160.67H160.69ZM160.97 53.36H165.6L163.29 48.23L160.98 53.36H160.97Z" fill="white" stroke="white" stroke-width="0.46" stroke-miterlimit="10"/>
<path d="M173.89 55.34C175.35 55.34 176.42 54.65 176.42 53.59C176.42 52.4 175.21 52.14 173.95 51.73C172.63 51.3 171.27 51.02 171.27 49.48C171.27 48.26 172.25 47.38 174.06 47.38C175.66 47.38 176.47 48.17 176.47 49.04C176.47 49.56 176.17 49.89 175.88 49.89C175.76 49.89 175.65 49.83 175.65 49.69C175.65 49.51 175.87 49.38 175.87 49.06C175.87 48.49 175.26 48 174.06 48C172.74 48 171.88 48.44 171.88 49.35C171.88 50.38 172.61 50.64 174.18 51.12C175.56 51.54 177.04 51.92 177.04 53.5C177.04 54.99 175.74 55.96 173.91 55.96C172.08 55.96 170.95 55.33 170.95 53.92C170.95 53.26 171.27 53 171.54 53C171.71 53 171.8 53.07 171.8 53.18C171.8 53.32 171.57 53.41 171.57 53.93C171.57 54.85 172.48 55.35 173.89 55.35V55.34Z" fill="white" stroke="white" stroke-width="0.46" stroke-miterlimit="10"/>
<path d="M180.8 56.85C180.63 56.85 180.54 56.73 180.54 56.62C180.54 56.42 180.92 56.24 180.92 55.94C180.92 55.77 180.6 55.6 180.6 55.28C180.6 55.04 180.8 54.89 181.06 54.89C181.39 54.89 181.63 55.11 181.63 55.48C181.63 56.1 181.02 56.85 180.81 56.85H180.8Z" fill="white" stroke="white" stroke-width="0.46" stroke-miterlimit="10"/>
<path d="M194.51 48C192.74 48 191.02 48.98 191.02 51.85C191.02 54.25 192.63 55.34 194.57 55.34C195.76 55.34 196.66 54.66 197.1 54.17C197.18 54.09 197.21 54.06 197.33 54.06C197.5 54.06 197.6 54.18 197.6 54.32C197.6 54.46 197.47 54.64 197.4 54.72C196.88 55.32 195.85 55.95 194.53 55.95C192.25 55.95 190.36 54.55 190.36 51.85C190.36 48.71 192.43 47.39 194.52 47.39C196.13 47.39 197.27 48.25 197.27 49.41C197.27 49.91 197.04 50.31 196.78 50.31C196.61 50.31 196.5 50.22 196.5 50.08C196.5 49.96 196.61 49.92 196.61 49.5C196.64 48.57 195.71 48 194.52 48H194.51Z" fill="white" stroke="white" stroke-width="0.46" stroke-miterlimit="10"/>
<path d="M201.72 51.7C201.72 49.14 203.67 47.4 205.81 47.4C207.95 47.4 209.9 49.15 209.9 51.7C209.9 54.25 208.06 55.96 205.81 55.96C203.56 55.96 201.72 54.24 201.72 51.7ZM209.24 51.7C209.24 49.5 207.7 48.01 205.81 48.01C203.92 48.01 202.38 49.5 202.38 51.7C202.38 53.9 203.94 55.35 205.81 55.35C207.68 55.35 209.24 53.87 209.24 51.7Z" fill="white" stroke="white" stroke-width="0.46" stroke-miterlimit="10"/>
<path d="M219.11 55.23C219.11 55.23 219.37 55.23 219.37 55.53C219.37 55.83 219.11 55.84 219.11 55.84H214.46C214.33 55.84 214.24 55.75 214.24 55.62V47.76C214.24 47.76 214.24 47.5 214.57 47.5C214.9 47.5 214.9 47.76 214.9 47.76V55.24H219.1L219.11 55.23Z" fill="white" stroke="white" stroke-width="0.46" stroke-miterlimit="10"/>
<path d="M222.37 51.7C222.37 49.14 224.32 47.4 226.46 47.4C228.6 47.4 230.55 49.15 230.55 51.7C230.55 54.25 228.71 55.96 226.46 55.96C224.21 55.96 222.37 54.24 222.37 51.7ZM229.89 51.7C229.89 49.5 228.35 48.01 226.46 48.01C224.57 48.01 223.03 49.5 223.03 51.7C223.03 53.9 224.59 55.35 226.46 55.35C228.33 55.35 229.89 53.87 229.89 51.7Z" fill="white" stroke="white" stroke-width="0.46" stroke-miterlimit="10"/>
<path d="M239.01 55.49L235.52 49V55.59C235.52 55.71 235.49 55.85 235.2 55.85C234.93 55.85 234.9 55.72 234.9 55.59V47.88C234.9 47.64 235.01 47.5 235.19 47.5C235.37 47.5 235.46 47.58 235.51 47.68L239.36 54.89L243.45 47.66C243.52 47.54 243.6 47.5 243.75 47.5C243.92 47.5 244 47.63 244 47.84V55.58C244 55.71 243.97 55.84 243.7 55.84C243.41 55.84 243.38 55.72 243.38 55.58V48.96L239.68 55.48C239.59 55.62 239.5 55.72 239.35 55.72C239.2 55.72 239.09 55.61 239.03 55.48L239.01 55.49Z" fill="white" stroke="white" stroke-width="0.46" stroke-miterlimit="10"/>
<path d="M253.01 51.41C253.92 51.52 254.67 52.22 254.67 53.46C254.67 54.85 253.81 55.85 252.26 55.85H248.67C248.54 55.85 248.45 55.76 248.45 55.63V47.73C248.45 47.6 248.54 47.51 248.67 47.51H251.37C253 47.51 254.1 48.03 254.1 49.62C254.1 50.74 253.64 51.24 253.02 51.41H253.01ZM249.1 51.29H252.29C253.01 51.29 253.39 50.57 253.39 49.6C253.39 48.41 252.61 48.11 251.35 48.11H249.09V51.29H249.1ZM252.47 51.91H249.1V55.22H252.07C253.37 55.22 253.96 54.59 253.96 53.46C253.96 52.33 253.29 51.9 252.47 51.9V51.91Z" fill="white" stroke="white" stroke-width="0.46" stroke-miterlimit="10"/>
<path d="M259.44 55.59C259.44 55.59 259.44 55.85 259.11 55.85C258.78 55.85 258.78 55.59 258.78 55.59V47.76C258.78 47.76 258.78 47.5 259.11 47.5C259.44 47.5 259.44 47.76 259.44 47.76V55.59Z" fill="white" stroke="white" stroke-width="0.46" stroke-miterlimit="10"/>
<path d="M264.73 53.98L263.98 55.64C263.92 55.75 263.87 55.85 263.59 55.85C263.39 55.85 263.3 55.73 263.3 55.59C263.3 55.55 263.33 55.48 263.33 55.48L266.88 47.76C266.98 47.55 267.05 47.44 267.31 47.44C267.56 47.44 267.67 47.58 267.73 47.74L271.29 55.48C271.29 55.48 271.32 55.57 271.32 55.64C271.32 55.71 271.32 55.85 271.03 55.85C270.8 55.85 270.69 55.74 270.64 55.64L269.89 53.98H264.71H264.73ZM265.01 53.36H269.64L267.33 48.23L265.02 53.36H265.01Z" fill="white" stroke="white" stroke-width="0.46" stroke-miterlimit="10"/>
</g>
<defs>
<clipPath id="clip0_3_440">
<rect width="271.57" height="57.08" fill="white"/>
</clipPath>
</defs>
</svg>
