<svg version="1.2" xmlns="http://www.w3.org/2000/svg" viewBox="0 0 16 14" width="16" height="14">
	<title>icon-start-mobile</title>
	<style>
		.s0 { fill: #667056 } 
	</style>
	<path class="s0" d="m7.1 5.6q-0.3-0.3-0.8-0.7-1.2-1-1.2-1.7 0-0.4 0.3-0.7 0.3-0.3 0.7-0.3 1.2 0 1.6 2 0.2 1.2 0.8 2.3 0.4-0.6 0.7-2.3 0.3-2.1 1.5-2.1 0.5 0 0.8 0.3 0.2 0.4 0.2 0.8 0 0.8-1 1.5-1.3 1.1-1.9 2 1.2-0.1 2.7-0.6 0.7-0.3 1.1-0.3 0.6 0 1 0.3 0.4 0.4 0.4 0.8 0 0.4-0.4 0.7-0.4 0.3-1 0.3-0.4 0-1.1-0.2-1.3-0.5-2.7-0.6 0.4 0.6 1.6 1.7 1.3 1.1 1.3 1.9 0 0.4-0.3 0.7-0.2 0.3-0.6 0.3-0.6 0-1-0.5-0.4-0.4-0.8-2-0.2-1.3-0.5-1.9-0.6 1.1-0.9 2.4-0.2 1-0.5 1.5-0.3 0.5-1 0.5-0.5 0-0.7-0.3-0.3-0.3-0.3-0.7 0-0.8 1.4-1.9 1.1-0.9 1.6-1.8-1.3 0.1-2.4 0.5-1.1 0.4-1.5 0.4-0.6 0-1-0.4-0.3-0.3-0.3-0.7 0-0.4 0.3-0.7 0.4-0.3 1-0.3 0.4 0 1.2 0.2 1.5 0.5 2.7 0.7l-1-1.1z"/>
</svg>