<svg width="628" height="43" viewBox="0 0 628 43" fill="none" xmlns="http://www.w3.org/2000/svg">
<g clip-path="url(#clip0_3_398)">
<path d="M17.8824 2.05694C17.476 1.10542 16.8173 0.657654 15.8783 0.657654C14.6311 0.657654 14.2527 1.24535 13.8322 2.14089L0.168173 31.8057C0.12613 31.8897 0 32.1695 0 32.4214C0 33.121 0.47649 33.8207 1.52757 33.8207C2.77485 33.8207 3.12521 33.3309 3.4055 32.7712L6.16634 26.6424H25.6043L28.3652 32.7712C28.5053 33.0931 28.9818 33.8347 30.2431 33.8347C31.2521 33.8347 31.7707 33.4289 31.7707 32.6033C31.7707 32.2815 31.6305 31.9037 31.6025 31.8337L17.8824 2.05694ZM7.60983 23.452L15.8783 5.13536L24.1609 23.452H7.60983Z" fill="white"/>
<path d="M55.8756 30.6443H40.0953V2.29482C40.0953 1.90302 39.787 0.895538 38.3996 0.895538C37.0122 0.895538 36.7039 1.90302 36.7039 2.29482V32.5473C36.7039 33.289 37.2224 33.8207 37.9792 33.8207H55.8896C56.282 33.8207 57.291 33.5268 57.291 32.2115C57.291 31.0641 56.4502 30.6443 55.8896 30.6443H55.8756Z" fill="white"/>
<path d="M82.8671 30.6443H65.251V22.3466H79.0972C79.5737 22.3046 80.4566 21.9128 80.4566 20.7374C80.4566 19.562 79.5597 19.2122 79.0552 19.1702H65.237V4.1279H81.6339C82.0963 4.05794 82.9792 3.63815 82.9792 2.47674C82.9792 1.31534 82.0823 0.951524 81.5778 0.909546H63.1488C62.4061 0.909546 61.8735 1.42728 61.8735 2.18289V32.5614C61.8735 33.303 62.3921 33.8347 63.1488 33.8347H82.8531C83.3296 33.7927 84.2125 33.4149 84.2125 32.2675C84.2125 31.1201 83.3156 30.7003 82.8531 30.6583L82.8671 30.6443Z" fill="white"/>
<path d="M103.833 16.7634L113.853 3.27434C113.853 3.27434 114.063 2.79858 114.063 2.33682C114.063 1.51124 113.335 0.895554 112.368 0.895554C111.821 0.895554 111.345 1.10545 111.008 1.48325L101.787 13.9509L92.6773 1.45527C92.341 1.06347 91.6402 0.881561 91.2478 0.881561C90.3089 0.881561 89.5941 1.52523 89.5941 2.3648C89.5941 2.88254 89.7763 3.17639 89.9725 3.41427L99.7406 16.7774L89.2157 31.0221C88.9074 31.4 88.7393 31.8337 88.7393 32.2675C88.7393 32.9811 89.3559 33.7927 90.1827 33.7927C91.0096 33.7927 91.5421 33.331 91.9345 32.8552L101.801 19.562L111.499 32.8132C112.017 33.4989 112.592 33.7927 113.419 33.7927C114.386 33.7927 114.904 33.1211 114.904 32.4774C114.904 31.8757 114.722 31.5819 114.484 31.204L103.861 16.7355L103.833 16.7634Z" fill="white"/>
<path d="M136.655 2.05694C136.248 1.10542 135.59 0.657654 134.651 0.657654C133.403 0.657654 133.025 1.24535 132.604 2.14089L118.94 31.8197C118.898 31.9037 118.772 32.1835 118.772 32.4354C118.772 33.135 119.249 33.8347 120.3 33.8347C121.547 33.8347 121.897 33.3449 122.178 32.7852L124.939 26.6564H144.377L147.137 32.7852C147.278 33.1071 147.754 33.8487 149.015 33.8487C150.024 33.8487 150.543 33.4429 150.543 32.6173C150.543 32.2955 150.403 31.9177 150.375 31.8477L136.655 2.05694ZM126.382 23.452L134.651 5.13536L142.933 23.452H126.382Z" fill="white"/>
<path d="M180.898 0.909531C179.763 0.909531 179.244 1.3573 179.244 2.30882V27.384L158.377 1.81907C157.746 1.04946 157.298 0.895538 156.779 0.895538C155.91 0.895538 155.462 1.49723 155.462 2.67263V32.4074C155.462 33.3729 155.91 33.8067 156.905 33.8067C157.34 33.8067 158.643 33.8067 158.643 32.4074V7.4302L179.595 32.8132L179.721 32.9811C180.043 33.4009 180.394 33.8207 181.15 33.8207C182.426 33.8207 182.426 32.6593 182.426 31.9596V2.29482C182.426 1.69313 182.271 0.895538 180.898 0.895538V0.909531Z" fill="white"/>
<path d="M200.742 0.909546H190.89C190.148 0.909546 189.615 1.42728 189.615 2.18289V32.5614C189.615 33.303 190.134 33.8347 190.89 33.8347H201.906C212.529 33.8347 218.387 27.8738 218.387 17.0293C218.387 6.18485 212.29 0.909546 200.742 0.909546ZM201.906 30.6443H193.02V4.07193H200.756C210.37 4.07193 215.051 8.29777 215.051 17.0153C215.051 25.7328 210.637 30.6443 201.92 30.6443H201.906Z" fill="white"/>
<path d="M248.279 30.2945C248.125 30.2945 248.027 30.3085 247.887 30.3365C247.691 30.3785 247.411 30.4204 246.696 30.4204C245.42 30.4204 244.117 28.6713 242.59 26.6564C241.37 25.0472 240.025 23.2421 238.329 21.8288C243.725 19.9118 246.808 16.1198 246.808 11.3202C246.808 2.08493 238.441 0.895538 231.14 0.895538H225.996C225.254 0.895538 224.721 1.41327 224.721 2.16889V32.4214C224.721 32.8132 225.029 33.8207 226.417 33.8207C227.804 33.8207 228.113 32.8132 228.113 32.4214V4.07191H231.126C238.708 4.07191 243.402 5.2753 243.402 11.2362C243.402 17.7569 235.989 20.0657 229.626 20.0657C228.687 20.0657 228.267 20.5555 228.267 21.6329C228.267 22.6404 228.912 23.1581 230.173 23.1581C231.728 23.1581 233.088 23.0462 234.293 22.8363C236.395 24.0817 238.049 26.3905 239.647 28.6154C241.567 31.288 243.374 33.8067 245.687 33.8067C247.733 33.8067 249.232 32.8412 249.232 31.5119C249.232 30.9102 248.868 30.2805 248.265 30.2805L248.279 30.2945Z" fill="white"/>
<path d="M269.497 2.05694C269.091 1.10542 268.432 0.657654 267.493 0.657654C266.246 0.657654 265.867 1.24535 265.447 2.14089L251.783 31.8197C251.741 31.9037 251.615 32.1835 251.615 32.4354C251.615 33.135 252.091 33.8347 253.142 33.8347C254.39 33.8347 254.74 33.3449 255.02 32.7852L257.781 26.6564H277.219L279.98 32.7852C280.12 33.1071 280.597 33.8487 281.858 33.8487C282.867 33.8487 283.385 33.4429 283.385 32.6173C283.385 32.2955 283.245 31.9177 283.217 31.8477L269.511 2.07093L269.497 2.05694ZM259.211 23.452L267.479 5.13536L275.762 23.452H259.211Z" fill="white"/>
<path d="M348.3 19.3241C348.09 19.2542 347.852 19.3241 347.698 19.4781C342.148 25.0192 334.272 29.399 327.321 33.0931C326.326 33.6388 325.317 34.1425 324.322 34.6463C323.999 34.3664 323.691 34.0866 323.411 33.8067C320.468 30.9102 319.038 27.2161 319.038 22.5005V21.9828C321.35 20.5415 323.705 19.1002 326.017 17.715C340.004 9.26328 343.423 6.50669 343.479 3.63815C343.507 2.70063 343.199 1.87506 342.582 1.24538C341.854 0.475771 340.718 0.0419933 339.415 0.0140076C339.303 0.0140076 339.205 0.0140076 339.093 0.0140076C335.127 0.0140076 330.712 1.77711 326.634 4.99546C321.308 9.17932 317.763 14.9584 317.146 20.4855C303.734 29.0771 298.969 33.8067 298.969 38.5083C298.969 41.2929 301.156 43.014 304.673 43.014C309.62 43.014 316.614 40.9571 324.364 37.207C329.661 41.153 336.71 42.5662 341.573 42.5662C345.301 42.5662 345.694 40.9011 345.694 40.1735C345.694 39.026 345.049 38.9001 344.923 38.8861C344.614 38.8581 344.334 39.054 344.278 39.3479C344.11 40.1455 343.661 40.5513 341.713 40.5513C336.136 40.5513 330.6 38.9701 326.41 36.1855C327.124 35.8357 327.783 35.4999 328.4 35.15C335.757 31.232 343.297 25.9987 346.072 23.6899C348.651 21.563 348.861 20.3736 348.763 19.8698C348.707 19.59 348.538 19.3941 348.3 19.3241ZM327.951 6.81453C331.819 3.84805 335.94 2.21088 339.569 2.21088C341.097 2.21088 341.391 2.64466 341.433 3.48423C341.489 5.20535 334.804 9.62709 324.77 15.714C322.864 16.8614 321.126 17.9388 319.459 18.9883C320.58 14.5246 323.691 10.0329 327.951 6.80054V6.81453ZM304.505 40.8031C301.562 40.8031 300.96 39.9356 300.96 38.6482C300.96 34.1705 309.41 28.1116 317.02 23.2421C317.188 27.9577 318.94 32.1136 322.121 35.29L322.402 35.5698C315.086 38.9561 308.752 40.8171 304.505 40.8171V40.8031Z" fill="white"/>
<path d="M389.615 15.0423L388.914 14.8324C382.818 12.9714 380.337 12.0758 380.337 8.42369C380.337 4.28181 385.34 3.65213 388.326 3.65213C392.866 3.65213 394.898 5.48519 394.898 7.30426C394.898 7.90595 394.66 8.29775 394.436 8.67556C394.24 8.99739 394.043 9.33322 394.043 9.73901C394.043 10.4526 394.562 10.9144 395.361 10.9144C396.678 10.9144 398.037 9.54311 398.037 7.24829C398.037 3.87601 395.038 0.461761 388.326 0.461761C381.613 0.461761 377.156 3.72209 377.156 8.95542C377.156 14.6365 381.851 16.1198 386.392 17.547C386.84 17.6869 387.302 17.8409 387.765 17.9808C388.241 18.1347 388.704 18.2886 389.166 18.4286C393.371 19.7579 396.986 20.9053 396.986 24.7393C396.986 28.5734 393.16 31.0501 387.667 31.0501C382.173 31.0501 379.118 29.1611 379.118 25.9847C379.118 24.8233 379.454 24.3056 379.707 23.9138C379.875 23.6619 380.029 23.424 380.029 23.1162C380.029 22.5844 379.665 22.0247 378.628 22.0247C377.338 22.0247 375.937 23.2701 375.937 25.9847C375.937 31.218 380.239 34.2265 387.751 34.2265C395.263 34.2265 400.21 30.2665 400.21 24.3615C400.21 18.4566 394.814 16.6095 389.601 15.0283L389.615 15.0423Z" fill="white"/>
<path d="M427.972 30.6443H410.356V22.3466H424.202C424.679 22.3046 425.562 21.9128 425.562 20.7374C425.562 19.562 424.665 19.2122 424.16 19.1702H410.342V4.1279H426.739C427.201 4.05794 428.084 3.63815 428.084 2.47674C428.084 1.31534 427.187 0.951524 426.683 0.909546H408.254C407.511 0.909546 406.979 1.42728 406.979 2.18289V32.5614C406.979 33.303 407.497 33.8347 408.254 33.8347H427.958C428.435 33.7927 429.317 33.4149 429.317 32.2675C429.317 31.1201 428.421 30.7003 427.958 30.6583L427.972 30.6443Z" fill="white"/>
<path d="M454.263 16.2177C456.338 15.0983 457.403 12.8314 457.403 9.44518C457.403 3.69412 453.829 0.909546 446.485 0.909546H436.073C435.33 0.909546 434.797 1.42728 434.797 2.18289V32.5614C434.797 33.303 435.316 33.8347 436.073 33.8347H449.919C455.819 33.8347 459.631 30.0566 459.631 24.2216C459.631 20.2197 457.571 17.2252 454.263 16.2317V16.2177ZM438.203 4.07193H446.485C451.839 4.07193 453.913 5.56916 453.913 9.38921C453.913 12.3277 452.904 15.4761 450.087 15.4761H438.203V4.07193ZM449.232 30.6024H438.203V18.6805H450.774C454.165 18.6805 456.099 20.7094 456.099 24.2636C456.099 28.5314 453.857 30.6163 449.218 30.6163L449.232 30.6024Z" fill="white"/>
<path d="M480.779 2.05694C480.372 1.10542 479.714 0.657654 478.775 0.657654C477.527 0.657654 477.149 1.24535 476.729 2.14089L463.064 31.8197C463.022 31.9037 462.896 32.1835 462.896 32.4354C462.896 33.135 463.373 33.8347 464.424 33.8347C465.671 33.8347 466.021 33.3449 466.302 32.7852L469.063 26.6564H488.501L491.261 32.7852C491.402 33.1071 491.864 33.8487 493.139 33.8487C494.148 33.8487 494.667 33.4429 494.667 32.6173C494.667 32.2955 494.527 31.9177 494.499 31.8477L480.793 2.07093L480.779 2.05694ZM470.492 23.452L478.775 5.13536L487.043 23.452H470.492Z" fill="white"/>
<path d="M512.465 15.0423L511.764 14.8324C505.668 12.9714 503.188 12.0758 503.188 8.42369C503.188 4.28181 508.191 3.65213 511.176 3.65213C515.717 3.65213 517.749 5.48519 517.749 7.30426C517.749 7.90595 517.51 8.29775 517.286 8.67556C517.09 8.99739 516.894 9.33322 516.894 9.73901C516.894 10.4526 517.412 10.9144 518.211 10.9144C519.528 10.9144 520.888 9.54311 520.888 7.24829C520.888 3.87601 517.889 0.461761 511.176 0.461761C504.463 0.461761 500.006 3.72209 500.006 8.95542C500.006 14.6365 504.701 16.1198 509.242 17.547C509.69 17.6869 510.153 17.8409 510.615 17.9808C511.092 18.1347 511.554 18.2886 512.017 18.4286C516.221 19.7579 519.837 20.9053 519.837 24.7393C519.837 28.5734 516.011 31.0501 510.517 31.0501C505.024 31.0501 501.968 29.1611 501.968 25.9847C501.968 24.8233 502.305 24.3056 502.557 23.9138C502.725 23.6619 502.879 23.424 502.879 23.1162C502.879 22.5844 502.515 22.0247 501.478 22.0247C500.189 22.0247 498.787 23.2701 498.787 25.9847C498.787 31.218 503.09 34.2265 510.601 34.2265C518.113 34.2265 523.06 30.2665 523.06 24.3615C523.06 18.4566 517.665 16.6095 512.451 15.0283L512.465 15.0423Z" fill="white"/>
<path d="M550.01 0.909531H527.979C527.587 0.909531 526.578 1.20338 526.578 2.51871C526.578 3.66612 527.419 4.08591 527.979 4.08591H537.299V32.4214C537.299 32.8132 537.607 33.8207 538.994 33.8207C540.382 33.8207 540.69 32.8132 540.69 32.4214V4.07191H550.01C550.57 4.07191 551.411 3.65213 551.411 2.50472C551.411 1.18939 550.402 0.895538 550.01 0.895538V0.909531Z" fill="white"/>
<path d="M557.718 0.909531C556.33 0.909531 556.022 1.91702 556.022 2.30882V32.4354C556.022 32.8272 556.33 33.8347 557.718 33.8347C559.105 33.8347 559.413 32.8272 559.413 32.4354V2.29482C559.413 1.90302 559.105 0.895538 557.718 0.895538V0.909531Z" fill="white"/>
<path d="M582.229 2.05694C581.823 1.10542 581.164 0.657654 580.225 0.657654C578.978 0.657654 578.599 1.24535 578.179 2.14089L564.515 31.8197C564.473 31.9037 564.347 32.1835 564.347 32.4354C564.347 33.135 564.823 33.8347 565.874 33.8347C567.122 33.8347 567.472 33.3449 567.752 32.7852L570.513 26.6564H589.951L592.712 32.7852C592.852 33.1071 593.314 33.8487 594.59 33.8487C595.599 33.8487 596.117 33.4429 596.117 32.6173C596.117 32.2955 595.977 31.9177 595.949 31.8477L582.243 2.07093L582.229 2.05694ZM571.942 23.452L580.225 5.13536L588.494 23.452H571.942Z" fill="white"/>
<path d="M626.473 0.909531C625.337 0.909531 624.819 1.3573 624.819 2.30882V27.384L603.951 1.83306C603.321 1.06345 602.872 0.909531 602.354 0.909531C601.485 0.909531 601.036 1.51122 601.036 2.68662V32.4214C601.036 33.3869 601.485 33.8207 602.48 33.8207C602.914 33.8207 604.218 33.8207 604.218 32.4214V7.4302L625.169 32.8132L625.295 32.9811C625.618 33.4009 625.968 33.8207 626.725 33.8207C628 33.8207 628 32.6593 628 31.9596V2.29482C628 1.69313 627.846 0.895538 626.473 0.895538V0.909531Z" fill="white"/>
</g>
<defs>
<clipPath id="clip0_3_398">
<rect width="628" height="43" fill="white"/>
</clipPath>
</defs>
</svg>
