<svg width="62" height="81" viewBox="0 0 62 81" fill="none" xmlns="http://www.w3.org/2000/svg">
<path d="M24.7343 52.7115V52.6309C24.7343 50.82 25.1962 49.1338 26.1053 47.5722C26.6258 46.905 27.139 46.2305 27.6596 45.5633L16.9117 0.81957C16.8604 0.621622 16.7431 0.526313 16.5451 0.526313C16.3472 0.526313 16.2299 0.628953 16.1785 0.81957L4.91745 48.5326C4.62419 49.7643 4.14765 50.6734 3.49515 51.2672C2.83532 51.861 1.82358 52.2056 0.459933 52.3009C0.313305 52.3009 0.23999 52.3743 0.23999 52.5209V52.7408C0.23999 52.8875 0.313305 52.9608 0.459933 52.9608C2.21215 52.8581 3.53181 52.8141 4.41158 52.8141C5.43798 52.8141 6.91893 52.8655 8.86909 52.9608C9.01572 52.9608 9.08904 52.8875 9.08904 52.7408V52.5209C9.08904 52.3743 9.01572 52.3009 8.86909 52.3009C7.89401 52.2496 7.12421 51.9564 6.56702 51.4138C6.0025 50.8713 5.72391 50.1088 5.72391 49.1264C5.72391 48.5326 5.77523 48.0707 5.87054 47.7261L11.5011 23.503C11.7943 22.3227 12.4028 21.7288 13.3266 21.7288H16.3252C17.3956 21.7288 18.0774 22.3227 18.3706 23.503L24.0745 47.7261C24.1698 48.0707 24.2211 48.5619 24.2211 49.1997C24.2211 51.1719 23.1214 52.2056 20.9293 52.3009C20.7827 52.3009 20.7094 52.3743 20.7094 52.5209V52.7408C20.7094 52.8875 20.7827 52.9608 20.9293 52.9608C22.3809 52.9094 23.6493 52.8728 24.727 52.8508C24.727 52.8068 24.727 52.7628 24.727 52.7115M17.2416 20.5411C17.073 20.8857 16.7651 21.0617 16.3252 21.0617H13.3266C12.7401 21.0617 12.4468 20.6951 12.4468 19.9546C12.4468 19.6614 12.4688 19.4341 12.5202 19.2875L14.1257 12.2713C14.1771 11.9267 14.2577 11.6188 14.3823 11.3475C14.507 11.0763 14.6609 10.9443 14.8589 10.9443C15.2474 10.9443 15.5407 11.3842 15.7387 12.2713L17.3442 19.2875C17.4395 19.7787 17.4029 20.1966 17.2343 20.5411" fill="white"/>
<path d="M37.8723 75.6296L37.4324 75.3363L41.5966 58.5693C41.648 58.3201 41.7433 58.2761 41.8899 58.4227L41.9632 58.496C42.0585 58.5986 42.1098 58.694 42.1098 58.7893C41.4793 61.3039 41.1567 63.7893 41.1567 66.2453C41.1567 70.1823 41.9852 73.3862 43.6421 75.8495C45.299 78.3129 47.5424 79.5446 50.365 79.5446C52.7991 79.5446 54.7492 78.6135 56.2155 76.7366C57.6745 74.8671 58.4076 72.5284 58.4076 69.7204C58.4076 67.7043 57.9897 65.8201 57.1613 64.0679C56.3328 62.323 55.3358 60.7468 54.1627 59.3391C52.9897 57.9388 51.3841 56.2013 49.3386 54.1338C47.1465 51.9197 45.4163 50.0575 44.148 48.5546C42.8796 47.0516 41.8092 45.3287 40.9295 43.3859C40.0497 41.4431 39.6098 39.3096 39.6098 37.0002C39.6098 33.8037 40.5629 31.267 42.4617 29.3902C44.3606 27.5207 46.7726 26.5823 49.6979 26.5823C54.1334 26.5823 57.2053 28.5251 58.9135 32.4181C59.2067 33.1072 59.4707 33.4518 59.7199 33.4518C60.1085 33.4518 60.717 32.0735 61.5455 29.3169L61.9854 29.6835L56.7947 48.9578C56.7434 49.1558 56.6481 49.2071 56.5014 49.1044L56.4281 49.0311C56.3328 48.9358 56.3035 48.7599 56.3548 48.5106C57.2346 45.2628 57.6745 42.1102 57.6745 39.0604C57.6745 35.3213 56.9413 32.4254 55.4824 30.3799C54.0234 28.3345 52.0953 27.3154 49.7052 27.3154C47.8064 27.3154 46.2301 28.0265 44.9911 29.4562C43.7447 30.8858 43.1289 32.8286 43.1289 35.292C43.1289 37.4621 43.5395 39.4563 44.3752 41.2745C45.2037 43.1 46.2301 44.7202 47.4471 46.1499C48.6641 47.5795 50.321 49.3024 52.4178 51.3185C54.5146 53.386 56.1935 55.1602 57.4619 56.6338C58.7302 58.1074 59.8006 59.801 60.6804 61.6925C61.5601 63.5914 62 65.6662 62 67.9316C62 71.4287 60.9516 74.3686 58.8548 76.7586C56.758 79.1487 53.8548 80.3437 50.1524 80.3437C47.6157 80.3437 45.409 79.6179 43.5321 78.1663C41.6553 76.7146 40.3723 75.0504 39.6905 73.1809C39.6391 72.8876 39.5218 72.741 39.3239 72.741C38.9353 72.741 38.4441 73.7014 37.8649 75.6222L37.8723 75.6296Z" fill="white"/>
<path d="M26.3547 53.1514L26.3841 53.1147V53.1514H26.3547ZM30.6363 43.4519V43.2393C30.7316 43.0633 30.7316 42.8141 30.7316 42.6308C30.7609 42.5575 30.7976 42.4915 30.8636 42.4182V42.3082C31.1568 41.597 32.0293 40.7393 32.8137 40.7393H33.5249C33.6202 40.7393 33.7228 40.8492 33.7815 40.9152C33.8768 40.8419 33.9794 40.7759 34.0747 40.7759V40.9519H34.3973C34.4633 41.0252 34.4926 41.0912 34.5293 41.1645H34.6613C34.8225 41.2378 35.0498 41.3771 35.1158 41.5237L35.2771 41.5604L35.3064 41.6337V41.883L35.4384 41.9563L35.4091 42.1689L35.4384 42.3082L35.1818 42.6308C35.0498 42.6674 34.9545 42.7407 34.8225 42.7407L34.7272 42.5648L34.5 42.4915L34.3387 42.3155H34.2727C34.1774 42.2789 34.1114 42.2056 34.0161 42.1762V41.9636L33.8841 42.1396C33.7228 42.0296 33.3636 42.0663 33.173 42.0663C32.7184 42.0663 31.9706 42.7407 31.9706 43.0633C31.9706 43.3126 32.1026 43.5252 32.0659 43.7745L32.1612 43.9138L32.1319 44.0237H32.2272L32.3225 43.9871V44.1264C32.4838 44.1997 32.6158 44.339 32.7478 44.4856L32.7184 44.7716L33.0117 44.7349C33.107 44.7716 33.2096 44.8082 33.239 44.8742C33.3709 44.9109 33.5615 44.9842 33.6275 45.0868L33.8548 45.1235L34.0821 45.3727L34.28 45.446L34.214 45.556V45.5927L34.346 45.7026L34.3167 45.8126V45.8493C34.346 45.9226 34.3827 45.9886 34.4486 46.0619H34.3533V46.1719H34.2214L34.2874 46.2452C34.0894 46.3185 33.8988 46.4944 33.7668 46.6704L33.3123 46.7437V46.5678H33.2463L33.1143 46.7071H32.7551V46.5971L32.6598 46.5604C32.4325 46.773 32.1392 46.8097 31.8826 46.9563H31.6554C31.4941 47.0956 31.1348 47.3522 30.9076 47.3156C30.2551 47.7408 29.5439 48.2467 29.06 48.8845C29.06 49.0238 28.9281 49.2071 28.8987 49.3464L28.6715 49.6323V49.7423L28.4149 50.0282C28.4149 50.2677 28.3489 50.4705 28.2169 50.6367L28.3122 50.71V50.7833C28.2462 50.8933 28.1509 51.0693 28.1509 51.2086L28.1216 51.1719C28.0556 51.1719 28.0923 51.2819 28.1216 51.3112L28.0923 51.3845V51.4212L28.1216 51.4945L28.0556 51.7071V51.8464C27.9896 51.9564 27.9603 52.059 27.9603 52.169V52.2056L28.0556 52.3449L28.0263 52.5942V53.0927L28.0923 53.1661L28.063 53.276C28.063 53.276 28.1583 53.452 28.1949 53.5253V53.5619C28.1949 53.7012 28.2609 53.8112 28.3269 53.9212C28.3269 53.9945 28.3269 54.0971 28.2976 54.1705V54.2804L28.4295 54.2071C28.4295 54.3464 28.7228 54.8523 28.7888 54.9183V55.0282L28.9867 55.0649L29.082 55.2775L29.0527 55.3142C29.0527 55.3875 29.082 55.4535 29.1187 55.5268C29.214 55.5634 29.28 55.6661 29.346 55.7394L29.4413 55.6661H29.4706L29.5659 55.776V55.8127C29.5659 55.9227 29.5952 56.0253 29.6612 56.0986H29.7565V56.2379H29.7859L29.9471 56.1646C30.1084 56.1646 30.1451 56.3406 30.0791 56.4505L30.1084 56.4872L30.2404 56.4505C30.3724 56.5239 30.497 56.5898 30.6656 56.6265V56.7365L30.7609 56.6998H30.7903L30.8856 56.7365H31.0835L31.1128 56.7731V56.9491L31.3401 56.8758C31.4354 56.9124 31.5014 56.9857 31.5381 57.0884L31.67 56.9784H31.7653L31.7947 57.0884L31.89 57.0517H32.4398L32.4692 57.0884L32.6671 57.125C32.9897 56.9491 32.8944 57.0884 33.151 57.0884H33.2463C33.3783 57.0151 33.6349 56.8758 33.7302 56.8758H33.7595L33.7888 56.9857C33.8841 56.8758 34.0161 56.8758 34.1114 56.8758C34.3387 56.8758 34.5 56.8024 34.6613 56.6265H34.9545C35.0498 56.5898 35.1525 56.4505 35.2111 56.3406L35.3064 56.3772H35.563C36.0836 55.842 36.7287 55.4461 37.1833 54.8816V54.7716L37.2126 54.6617L37.3446 54.735H37.3739L37.5059 54.625L37.4765 54.5517H37.4105V54.515C37.5425 54.2658 37.7331 54.0532 37.8651 53.8039C38.063 53.4813 38.0264 52.9828 38.2243 52.6602V52.4476L38.3196 52.235V51.9124L38.3856 51.8024V51.5531L38.2903 51.4798L38.195 51.0839L38.0997 51.0473V50.8713L38.0044 50.7613L38.0704 50.688L37.9091 50.5781V50.4388L37.7478 50.3654C37.7185 50.2555 37.6818 50.1528 37.6158 50.0795H37.4179C37.2566 50.0795 37.0953 50.0429 36.9633 50.0062L36.8314 50.0795L36.7361 50.0062L36.7654 49.8962H36.7361C36.6407 49.8962 36.4428 50.1088 36.3475 50.2188L36.2815 50.0795C35.9882 50.3654 35.2771 50.7907 35.1158 51.0399V51.1132C34.8592 51.3625 34.3387 51.971 34.1774 52.2936L34.2067 52.4036C34.0454 52.6529 33.7522 53.0121 33.4956 53.1514L33.4296 53.0414L33.2316 53.254L33.2023 53.1441V53.0341L33.0044 52.8948L33.0703 53.0048L32.975 52.9314L32.8137 53.0048L32.7478 52.7188V52.6822L32.9457 52.3229V52.2863L32.8504 52.147L33.0483 51.8977H33.1437L33.1143 51.7877L33.2096 51.6118C33.239 51.0033 33.7961 50.9006 33.8915 50.3654C34.1847 50.0795 34.412 49.7569 34.6686 49.471L34.7639 49.5077H34.7932C34.8885 49.4343 34.9912 49.3317 35.0498 49.2217L35.4091 49.0091V49.1484H35.4384L35.6363 48.8992V48.8625C35.7023 48.7525 35.7683 48.6132 35.7683 48.5033C35.8636 48.4299 36.0249 48.254 36.0616 48.144L36.1275 48.1807L36.0982 48.0414C36.1935 47.9021 36.2962 47.7188 36.3255 47.5428V47.4695C36.3255 47.3302 36.3548 47.1836 36.4208 47.0736V46.8977C36.4501 46.7877 36.4868 46.7217 36.5528 46.6484L36.4575 46.5384C36.5234 46.3258 36.5894 46.1132 36.6847 45.9299L36.6554 45.8566L36.6847 45.6073L36.846 45.4314L36.7507 45.3581V45.2848C36.7507 45.1088 36.846 44.8229 36.912 44.6762C36.912 44.5663 36.8827 44.4636 36.8827 44.3903V44.3537C36.9487 44.2803 37.0146 44.2144 37.0806 44.1044V44.0677L36.9853 43.9944C37.0146 43.8551 37.1833 43.7452 37.3079 43.6352V43.7452L37.11 43.9944H37.1393L37.4325 43.7452H37.5279L37.6598 43.6352L37.7551 43.9578H37.8504C37.9824 44.0677 38.0117 44.2437 38.0117 44.4196C38.0117 44.5956 37.9457 44.7789 37.8798 44.9182V45.1675L37.6818 45.4167H37.8798C37.8798 45.556 37.8138 45.7026 37.8504 45.8786C37.7845 46.0179 37.6891 46.1645 37.6232 46.2745L37.6525 46.3112C37.6525 46.5238 37.5865 46.7364 37.6232 46.9856L37.5572 47.0223L37.5279 47.3082L37.3959 47.5208V47.7335C37.3006 47.8068 37.2346 47.9094 37.1979 48.0194V48.1294H37.2932C37.2273 48.2687 37.1613 48.3786 37.0953 48.5253C37.1613 48.5619 37.2273 48.5986 37.2932 48.5986H37.3226L37.5205 48.4886V48.7012H37.8431L37.9091 48.7379C38.0411 48.7012 38.1657 48.7379 38.2317 48.8478C38.3636 48.8478 38.5249 48.9871 38.6202 49.0971C38.4883 49.1338 38.393 49.2731 38.327 49.383V49.4563L38.6202 49.2071L38.6862 49.2437L38.6569 49.3537H38.7889C38.8842 49.427 38.9208 49.5663 38.9868 49.6396L39.1848 49.7496L39.1554 49.9256L39.2507 49.8889C39.2801 49.9989 39.346 50.0649 39.412 50.1015C39.4414 50.2115 39.478 50.3508 39.4414 50.4608L39.5367 50.6001L39.566 51.0986L39.6613 51.2086V51.8171L39.7566 51.7804V51.8171C39.7566 51.9564 39.5293 52.4622 39.6246 52.5282V52.6382C39.6246 52.9241 39.5953 53.386 39.3314 53.5326V53.6059L39.4267 53.6426C39.3314 53.9285 39.0381 54.2144 38.9721 54.5004L39.0015 54.537C38.9721 54.6763 38.9062 54.7496 38.8402 54.8596C38.8109 54.8963 38.8402 54.9696 38.8695 54.9989C38.8695 55.3948 36.9853 57.2497 36.5968 57.4256L36.5308 57.3523L36.5968 57.3156L36.5308 57.279C36.4355 57.3156 36.3328 57.389 36.2742 57.4549L36.1789 57.4183C36.0836 57.4916 35.9809 57.5942 35.9516 57.7042H36.0836L36.0542 57.8142L35.9589 57.8875L35.8929 57.7775H35.8636L35.5704 57.9535V57.7775C35.2478 57.8875 34.5953 58.562 34.302 58.5253L34.3313 58.386H34.302L34.2067 58.4593V58.5693C34.1407 58.606 34.0454 58.6426 33.9501 58.6426H33.8548L33.7888 58.5693H33.7595C33.5615 58.7086 33.3343 58.7453 33.107 58.7453L32.9457 58.8186H32.8504L32.6231 58.7086C32.6231 58.7086 32.6524 58.8186 32.6524 58.8479C32.5571 58.8479 32.5865 58.7086 32.4252 58.8113H32.1686L32.0073 58.7379H31.4574L31.4281 58.6646H31.3328L31.1715 58.5547H30.9149L30.8856 58.518L30.7903 58.5547H30.6949L30.7609 58.4447V58.3714L30.563 58.408L30.4677 58.3714L30.4017 58.408H30.3357L30.2404 58.2687L30.1451 58.3054L29.9838 58.1954L29.8885 58.0561H29.7565L29.6612 57.9461H29.4999L29.5659 57.7702L29.4706 57.6969L29.4413 57.5869H29.4119C29.3166 57.5869 29.2507 57.6969 29.1553 57.6969H29.126L29.0307 57.5869L29.06 57.411L28.8034 57.4476C28.7081 57.3083 28.5468 57.1983 28.3782 57.0884L28.3489 56.9491H28.2169L27.9237 56.6998V56.5898C27.8577 56.5165 27.7917 56.4505 27.6964 56.4139L27.6011 56.2013L27.4691 56.0913V55.9813C27.3738 55.9447 27.3078 55.8714 27.2418 55.8054C27.2418 55.6954 27.1759 55.5194 27.1099 55.4461V55.3728L27.2418 55.2335H26.9852C26.9559 55.1235 26.9193 55.0209 26.9193 54.8743L26.8239 54.8376L26.7946 54.7276V54.515C26.5967 54.3757 26.538 54.1191 26.5673 53.8699L26.5967 53.7599C26.5673 53.5473 26.5014 53.3347 26.5307 53.1147L26.4354 52.9754V52.9021L26.4647 52.7921V52.6162L26.5307 52.5062V52.4696L26.4354 52.2936V52.2203C26.4354 51.971 26.5014 51.7584 26.4647 51.5091C26.5307 51.2965 26.5967 51.0106 26.692 50.8347L26.5967 50.7247L26.6627 50.5487L26.8899 50.2261L26.7946 50.1895V50.1528L26.8899 49.9769L26.8239 49.8669C26.8239 49.1558 27.5718 48.9725 27.8943 48.4739L27.865 48.4373H27.7697L27.5424 48.5766L27.5131 48.5399L28.0996 47.7554L28.1656 47.8288H28.2316L28.3269 47.7188L28.2609 47.6088H28.3562V47.4988H28.4515V47.4622C28.8401 46.8537 29.9765 45.9666 30.5923 45.6807L30.6876 45.754C30.8196 45.644 30.9442 45.578 31.0469 45.5047C31.1128 45.468 31.1788 45.468 31.2082 45.5414H31.2375C31.3328 45.468 31.5601 45.3654 31.5601 45.2554C31.5601 45.1161 31.4648 45.1821 31.4281 45.0795V44.9035L31.3621 44.8302L31.3914 44.7569L31.3255 44.7202L31.1935 44.7935L31.1275 44.7202V44.6469L31.0322 44.5736L31.0029 44.4636V44.2877L30.9076 44.3243L30.8782 44.2144V44.0751L30.7169 43.9358V43.8625L30.8123 43.7232V43.5472L31.0102 43.2979L30.9442 43.2613L30.6876 43.4006L30.6363 43.4519ZM26.8386 51.6558V51.6191H26.8093L26.8386 51.6558ZM26.8753 49.9769H26.9413V49.9036H26.8753V49.9769ZM26.8753 50.2261H26.9413V50.1895L26.8753 50.2261ZM27.0659 54.2584H27.0952L27.3225 54.0092H27.2932L27.0659 54.2584ZM27.2638 50.2995V50.2628H27.2345L27.2638 50.2995ZM28.1729 50.6954V50.6587L28.1436 50.6954H28.1729ZM28.3049 49.8742H28.4002L28.4955 49.7643H28.4002L28.3049 49.8742ZM28.7228 47.4109V47.3742L28.6935 47.4109H28.7228ZM28.8548 47.3009L29.1114 47.015L29.082 46.9417C28.9867 47.0516 28.8841 47.1909 28.8254 47.3009H28.8548ZM29.148 55.4755L29.1773 55.4388V55.4755H29.148ZM29.6026 57.7555V57.7189H29.5732L29.6026 57.7555ZM29.6319 57.6822L29.6612 57.6089H29.6319V57.6822ZM29.7639 56.0473V56.0107H29.7932L29.7639 56.0473ZM30.1231 57.257L30.1524 57.2203H30.1231V57.257ZM30.2184 57.1177H30.2844L30.3137 57.081V57.0444L30.2184 57.1177ZM30.3797 56.9711H30.409V56.9344L30.3797 56.9711ZM30.4457 58.5033V58.4667H30.475L30.4457 58.5033ZM30.5776 45.9153L30.5483 45.8786V45.9153H30.5776ZM30.5776 47.5208L30.5483 47.4842V47.5208H30.5776ZM30.541 56.8318L30.607 56.7585H30.541V56.8318ZM31.0249 42.2715L30.9955 42.2349V42.2715H31.0249ZM30.9955 43.3053L31.0249 43.2686H30.9955V43.3053ZM31.0249 44.339L30.9955 44.3023V44.339H31.0249ZM31.0615 44.273L31.0908 44.3097L31.1862 44.1997L31.1568 44.163V44.1997L31.0615 44.273ZM31.2228 42.0223H31.2888V41.949L31.2228 42.0223ZM31.2521 44.0897H31.2228V44.1264L31.2521 44.0897ZM31.3841 41.8097L31.3181 41.9196H31.3841L31.4134 41.883V41.8097L31.3841 41.773H31.3181L31.3841 41.8097ZM31.3181 44.0531L31.3474 44.0164H31.3181V44.0531ZM31.4794 41.663L31.4501 41.6264V41.663H31.4794ZM31.4501 57.147L31.4794 57.1104H31.4501V57.147ZM31.4794 58.65L31.4501 58.6133V58.65H31.4794ZM31.5454 41.6337L31.6114 41.5604H31.5454V41.6337ZM31.5821 43.2393L31.5527 43.2026V43.2393H31.5821ZM31.6114 43.166V43.2026L31.6407 43.166H31.6114ZM31.6774 46.6997L31.7727 46.773H31.8387L31.934 46.6631V46.5898H31.8387L31.6774 46.6997ZM31.6774 57.147L31.7067 57.1104H31.6774V57.147ZM31.8093 57.2937H31.78V57.3303L31.8093 57.2937ZM31.8387 57.2203H31.868V57.1837L31.8387 57.2203ZM31.934 57.1177V57.1544L31.9633 57.1177H31.934ZM32.0366 57.2937H32.0073V57.3303L32.0366 57.2937ZM32.8137 58.7233H32.7844V58.7599L32.8137 58.7233ZM32.909 52.7628L32.8797 52.7262V52.7628H32.909ZM32.9457 44.9475V44.9109L32.9164 44.9475H32.9457ZM33.1363 52.8361L33.107 52.7995V52.8361H33.1363ZM33.239 53.0121L33.3049 52.9388H33.239V53.0121ZM33.3636 51.905L33.3343 51.8684V51.905H33.3636ZM33.3636 52.9021L33.3343 52.8655V52.9021H33.3636ZM33.3636 58.1514L33.3343 58.1148V58.1514H33.3636ZM33.4956 53.0121V52.9754L33.4662 53.0121H33.4956ZM33.8181 42.0223L33.7888 41.9856V42.0223H33.8181ZM33.9135 58.4007H33.8841V58.4374L33.9135 58.4007ZM34.0161 50.798L34.0454 50.7613H34.0161V50.798ZM34.0454 51.9784L34.0161 51.9417V51.9784H34.0454ZM34.1114 51.8684L34.0821 51.905H34.1114V51.8684ZM34.2727 45.9446V45.9079L34.2434 45.9446H34.2727ZM34.2434 46.4138L34.2727 46.3771V46.4138H34.2434ZM34.2727 41.4504L34.302 41.4138H34.2727V41.4504ZM34.3387 41.3771L34.368 41.3404H34.3387V41.3771ZM34.3387 46.3038V46.2672L34.368 46.3038H34.3387ZM34.4047 41.3478V41.3111H34.3753L34.4047 41.3478ZM34.5 45.9446L34.4047 45.9079V45.8713L34.5 45.9446ZM34.4047 51.5165V51.5531H34.434L34.4047 51.5165ZM34.434 41.2745H34.5V41.2011L34.434 41.2745ZM34.5 42.3448V42.3082H34.4706L34.5 42.3448ZM34.5 51.4798L34.4706 51.4432V51.4798H34.5ZM34.5659 51.4065L34.5953 51.3698H34.5659V51.4065ZM34.6319 42.4475V42.4108H34.6026L34.6319 42.4475ZM34.7272 42.0956V42.0589H34.6979L34.7272 42.0956ZM34.9545 42.1982V42.1616H34.9252L34.9545 42.1982ZM35.0498 42.0956V42.0589H35.0205L35.0498 42.0956ZM35.2478 49.3757L35.2184 49.339V49.3757H35.2478ZM35.2478 49.3024L35.2771 49.339L35.3724 49.2291H35.3431L35.2478 49.3024ZM36.2229 56.3992L36.2522 56.3626H36.2229V56.3992ZM36.7434 45.9153V45.8786L36.7141 45.9153H36.7434ZM36.7434 56.2966V56.2599H36.7141L36.7434 56.2966ZM36.868 45.3801L36.8973 45.3434H36.868V45.3801ZM36.9707 45.3068V45.2701L36.9413 45.3068H36.9707ZM37.2932 48.9431V48.9065H37.2639L37.2932 48.9431ZM37.3886 48.8698V48.8332L37.3592 48.8698H37.3886ZM37.3886 54.9036V54.9403L37.4179 54.9036H37.3886ZM37.4545 46.4798L37.4839 46.4431H37.4545V46.4798ZM37.5205 46.3771V46.4138H37.5498L37.5205 46.3771ZM37.5498 54.5077H37.6158V54.4711L37.5498 54.5077ZM37.6158 44.163V44.1264H37.5865L37.6158 44.163ZM37.6525 44.0897L37.6818 44.0164H37.6525V44.0897ZM37.8138 54.3684L37.7845 54.3318V54.3684H37.8138ZM38.2977 49.5517V49.515H38.2683L38.2977 49.5517ZM38.2683 55.5414L38.4663 55.3655H38.4369L38.2757 55.5414H38.2683ZM38.393 55.7247V55.6514H38.327L38.393 55.7247ZM39.0455 54.5077L39.0748 54.4711V54.5077H39.0455ZM39.1114 50.8713L39.2068 50.7613H39.1774L39.1114 50.8347V50.8713ZM39.2434 50.7613L39.2727 50.7247H39.2434V50.7613ZM39.3021 53.6573V53.6206L39.2727 53.6573H39.3021ZM39.3387 52.015L39.368 51.9784H39.3387V52.015Z" fill="white"/>
</svg>
