<svg width="30" height="38" viewBox="0 0 30 38" fill="none" xmlns="http://www.w3.org/2000/svg">
<path d="M10.1974 6.128L9.62138 6.416V5.984C9.83738 5.624 9.83738 5.12 9.83738 4.76C9.90938 4.616 9.98138 4.472 10.1254 4.328V4.112C10.7734 2.672 12.7174 0.943999 14.4454 0.943999H16.0294C16.2454 0.943999 16.4614 1.16 16.6054 1.304C16.8214 1.16 17.0374 1.016 17.2534 1.016V1.376H17.9734C18.1174 1.52 18.1894 1.664 18.2614 1.808H18.5494C18.9094 1.952 19.4134 2.24 19.5574 2.528L19.9174 2.6L19.9894 2.744V3.248L20.2774 3.392L20.2054 3.824L20.2774 4.112L19.7014 4.76C19.4134 4.832 19.1974 4.976 18.9094 4.976L18.6934 4.616L18.1894 4.472L17.8294 4.112H17.6854C17.4694 4.04 17.3254 3.896 17.1094 3.824V3.392L16.8214 3.752C16.4614 3.536 15.6694 3.608 15.2374 3.608C14.2294 3.608 12.5734 4.976 12.5734 5.624C12.5734 6.128 12.8614 6.56 12.7894 7.064L13.0054 7.352L12.9334 7.568H13.1494L13.3654 7.496V7.784C13.7254 7.928 14.0134 8.216 14.3014 8.504L14.2294 9.08L14.8774 9.008C15.0934 9.08 15.3094 9.152 15.3814 9.296C15.6694 9.368 16.1014 9.512 16.2454 9.728L16.7494 9.8L17.2534 10.304L17.6854 10.448L17.5414 10.664V10.736L17.8294 10.952L17.7574 11.168V11.24C17.8294 11.384 17.9014 11.528 18.0454 11.672H17.8294V11.888H17.5414L17.6854 12.032C17.2534 12.176 16.8214 12.536 16.5334 12.896L15.5254 13.04V12.68H15.3814L15.0934 12.968H14.3014V12.752L14.0854 12.68C13.5814 13.112 12.9334 13.184 12.3574 13.472H11.8534C11.4934 13.76 10.7014 14.264 10.1974 14.192C8.75738 15.056 7.17338 16.064 6.09338 17.36C6.09338 17.648 5.80538 18.008 5.73338 18.296L5.22938 18.872V19.088L4.65338 19.664C4.65338 20.384 4.65338 20.384 4.22138 20.888L4.43738 21.032V21.176C4.29338 21.392 4.07738 21.752 4.07738 22.04L4.00538 21.968C3.86137 21.968 3.93338 22.184 4.00538 22.256L3.93338 22.4V22.472L4.00538 22.616L3.86137 23.048V23.336C3.71738 23.552 3.64538 23.768 3.64538 23.984V24.056L3.86137 24.344L3.78938 24.848V25.856L3.93338 26L3.86137 26.216C3.93338 26.288 4.07738 26.576 4.14938 26.72V26.792C4.14938 27.08 4.29338 27.296 4.43738 27.512C4.43738 27.656 4.43738 27.872 4.36538 28.016V28.232L4.65338 28.088C4.65338 28.376 5.30138 29.384 5.44538 29.528V29.744L5.87738 29.816L6.09338 30.248L6.02138 30.32C6.02138 30.464 6.09338 30.608 6.16538 30.752C6.38138 30.824 6.52538 31.04 6.66938 31.184L6.88538 31.04H6.95738L7.17338 31.256V31.328C7.17338 31.544 7.24538 31.76 7.38938 31.904H7.60538V32.192H7.67738L8.03738 32.048C8.39738 32.048 8.46938 32.408 8.32538 32.624L8.39738 32.696L8.68538 32.624C8.97338 32.768 9.26138 32.912 9.62138 32.984V33.2L9.83738 33.128H9.90938L10.1254 33.2H10.5574L10.6294 33.272V33.632L11.1334 33.488C11.3494 33.56 11.4934 33.704 11.5654 33.92L11.8534 33.704H12.0694L12.1414 33.92L12.3574 33.848H13.5814L13.6534 33.92L14.0854 33.992C14.8054 33.632 14.5894 33.92 15.1654 33.92H15.3814C15.6694 33.776 16.2454 33.488 16.4614 33.488H16.5334L16.6054 33.704C16.8214 33.488 17.1094 33.488 17.3254 33.488C17.8294 33.488 18.1894 33.344 18.5494 32.984H19.1974C19.4134 32.912 19.6294 32.624 19.7734 32.408L19.9894 32.48H20.5654C21.7174 31.4 23.1574 30.608 24.1654 29.456V29.24L24.2374 29.024L24.5254 29.168H24.5974L24.8854 28.952L24.8134 28.808H24.6694V28.736C24.9574 28.232 25.3894 27.8 25.6774 27.296C26.1094 26.648 26.0374 25.64 26.4694 24.992V24.56L26.6854 24.128V23.48L26.8294 23.264V22.76L26.6134 22.616L26.3974 21.824L26.1814 21.752V21.392L25.9654 21.176L26.1094 21.032L25.7494 20.816V20.528L25.3894 20.384C25.3174 20.168 25.2454 19.952 25.1014 19.808H24.6694C24.3094 19.808 23.9494 19.736 23.6614 19.664L23.3734 19.808L23.1574 19.664L23.2294 19.448H23.1574C22.9414 19.448 22.5094 19.88 22.2934 20.096L22.1494 19.808C21.5014 20.384 19.9174 21.248 19.5574 21.752V21.896C18.9814 22.4 17.8294 23.624 17.4694 24.272L17.5414 24.488C17.1814 24.992 16.5334 25.712 15.9574 26L15.8134 25.784L15.3814 26.216L15.3094 26V25.784L14.8774 25.496L15.0214 25.712L14.8054 25.568L14.4454 25.712L14.3014 25.136V25.064L14.7334 24.344V24.272L14.5174 23.984L14.9494 23.48H15.1654L15.0934 23.264L15.3094 22.904C15.3814 21.68 16.6054 21.464 16.8214 20.384C17.4694 19.808 17.9734 19.16 18.5494 18.584L18.7654 18.656H18.8374C19.0534 18.512 19.2694 18.296 19.4134 18.08L20.2054 17.648V17.936H20.2774L20.7094 17.432V17.36C20.8534 17.144 20.9974 16.856 20.9974 16.64C21.2134 16.496 21.5734 16.136 21.6454 15.92L21.7894 15.992L21.7174 15.704C21.9334 15.416 22.1494 15.056 22.2214 14.696V14.552C22.2214 14.264 22.2934 13.976 22.4374 13.76V13.4C22.5094 13.184 22.5814 13.04 22.7254 12.896L22.5094 12.68C22.6534 12.248 22.7974 11.816 23.0134 11.456L22.9414 11.312L23.0134 10.808L23.3734 10.448L23.1574 10.304V10.16C23.1574 9.8 23.3734 9.224 23.5174 8.936C23.5174 8.72 23.4454 8.504 23.4454 8.36V8.288C23.5894 8.144 23.7334 8 23.8774 7.784V7.712L23.6614 7.568C23.7334 7.28 24.0934 7.064 24.3814 6.848V7.064L23.9494 7.568H24.0214L24.6694 7.064H24.8854L25.1734 6.848L25.3894 7.496H25.6054C25.8934 7.712 25.9654 8.072 25.9654 8.432C25.9654 8.792 25.8214 9.152 25.6774 9.44V9.944L25.2454 10.448H25.6774C25.6774 10.736 25.5334 11.024 25.6054 11.384C25.4614 11.672 25.2454 11.96 25.1014 12.176L25.1734 12.248C25.1734 12.68 25.0294 13.112 25.1014 13.616L24.9574 13.688L24.8854 14.264L24.5974 14.696V15.128C24.3814 15.272 24.2374 15.488 24.1654 15.704V15.92H24.3814C24.2374 16.208 24.0934 16.424 23.9494 16.712C24.0934 16.784 24.2374 16.856 24.3814 16.856H24.4534L24.8854 16.64V17.072H25.6054L25.7494 17.144C26.0374 17.072 26.3254 17.144 26.4694 17.36C26.7574 17.36 27.1174 17.648 27.3334 17.864C27.0454 17.936 26.8294 18.224 26.6854 18.44V18.584L27.3334 18.08L27.4774 18.152L27.4054 18.368H27.6934C27.9094 18.512 27.9814 18.8 28.1254 18.944L28.5574 19.16L28.4854 19.52L28.7014 19.448C28.7734 19.664 28.9174 19.808 29.0614 19.88C29.1334 20.096 29.2054 20.384 29.1334 20.6L29.3494 20.888L29.4214 21.896L29.6374 22.112V23.336L29.8534 23.264V23.336C29.8534 23.624 29.3494 24.632 29.5654 24.776V24.992C29.5654 25.568 29.4934 26.504 28.9174 26.792V26.936L29.1334 27.008C28.9174 27.584 28.2694 28.16 28.1254 28.736L28.1974 28.808C28.1254 29.096 27.9814 29.24 27.8374 29.456C27.7654 29.528 27.8374 29.672 27.9094 29.744C27.9094 30.536 23.7334 34.28 22.8694 34.64L22.7254 34.496L22.8694 34.424L22.7254 34.352C22.5094 34.424 22.2934 34.568 22.1494 34.712L21.9334 34.64C21.7174 34.784 21.5014 35 21.4294 35.216H21.7174L21.6454 35.432L21.4294 35.576L21.2854 35.36H21.2134L20.5654 35.72V35.36C19.8454 35.576 18.4054 36.944 17.7574 36.872L17.8294 36.584H17.7574L17.5414 36.728V36.944C17.3974 37.016 17.1814 37.088 16.9654 37.088H16.7494L16.6054 36.944H16.5334C16.1014 37.232 15.5974 37.304 15.0934 37.304L14.7334 37.448H14.5174L14.0134 37.232C14.0854 37.304 14.0854 37.448 14.0854 37.52C13.8694 37.52 13.9414 37.232 13.5814 37.448H13.0054L12.6454 37.304H11.4214L11.3494 37.16H11.1334L10.7734 36.944H10.1974L10.1254 36.872L9.90938 36.944H9.69337L9.83738 36.728V36.584L9.40538 36.656L9.18938 36.584L9.04538 36.656H8.90138L8.68538 36.368L8.46938 36.44L8.10938 36.224L7.89338 35.936H7.60538L7.38938 35.72H7.02938L7.17338 35.36L6.95738 35.216L6.88538 35H6.81338C6.59738 35 6.45338 35.216 6.23738 35.216H6.16538L5.94938 35L6.02138 34.64L5.44538 34.712C5.22938 34.424 4.86938 34.208 4.50938 33.992L4.43738 33.704H4.14938L3.50138 33.2V32.984C3.35738 32.84 3.21338 32.696 2.99738 32.624L2.78138 32.192L2.49338 31.976V31.76C2.27738 31.688 2.13338 31.544 1.98938 31.4C1.98938 31.184 1.84538 30.824 1.70138 30.68V30.536L1.98938 30.248H1.41338C1.34138 30.032 1.26938 29.816 1.26938 29.528L1.05338 29.456L0.981375 29.24V28.808C0.549375 28.52 0.405375 28.016 0.477375 27.512L0.549375 27.296C0.477375 26.864 0.333375 26.432 0.405375 26L0.189375 25.712V25.568L0.261375 25.352V24.992L0.405375 24.776V24.704L0.189375 24.344V24.2C0.189375 23.696 0.333375 23.264 0.261375 22.76C0.405375 22.328 0.549375 21.752 0.765375 21.392L0.549375 21.176L0.693375 20.816L1.19738 20.168L0.981375 20.096V20.024L1.19738 19.664L1.05338 19.448C1.05338 18.008 2.70938 17.648 3.42938 16.64L3.35738 16.568H3.14138L2.63738 16.856L2.56538 16.784L3.86137 15.2L4.00538 15.344H4.14938L4.36538 15.128L4.22138 14.912H4.43738V14.696H4.65338V14.624C5.51738 13.4 8.03738 11.6 9.40538 11.024L9.62138 11.168C9.90938 10.952 10.1974 10.808 10.4134 10.664C10.5574 10.592 10.7014 10.592 10.7734 10.736H10.8454C11.0614 10.592 11.5654 10.376 11.5654 10.16C11.5654 9.872 11.3494 10.016 11.2774 9.8V9.44L11.1334 9.296L11.2054 9.152L11.0614 9.08L10.7734 9.224L10.6294 9.08V8.936L10.4134 8.792L10.3414 8.576V8.216L10.1254 8.288L10.0534 8.072V7.784L9.69337 7.496V7.352L9.90938 7.064V6.704L10.3414 6.2L10.1974 6.128ZM13.8694 1.52V1.376V1.52ZM18.1894 1.88L18.0454 2.024H18.1894V1.88ZM17.9014 2.096L17.9734 2.168V2.096H17.9014ZM17.8294 2.168V2.24L17.9014 2.168H17.8294ZM12.0694 2.312V2.24V2.312ZM17.6854 2.312V2.384L17.7574 2.312H17.6854ZM11.6374 2.6V2.744L11.7814 2.6H11.6374ZM11.4214 2.816H11.4934L11.4214 2.744V2.816ZM11.1334 3.032L11.2774 3.104L11.1334 3.32H11.2774L11.3494 3.248V3.104L11.2774 3.032H11.1334ZM13.0054 3.392V3.248V3.392ZM11.0614 3.392L10.9174 3.536H11.0614V3.392ZM12.8614 3.536V3.392V3.536ZM16.6054 3.536H16.6774L16.6054 3.464V3.536ZM10.8454 3.608V3.68V3.608ZM12.6454 3.752V3.608V3.752ZM18.6214 3.608L18.6934 3.68V3.608H18.6214ZM19.3414 3.608L19.4134 3.68V3.608H19.3414ZM10.6294 3.824V3.896V3.824ZM12.5014 3.896V3.752V3.896ZM19.1254 3.824L19.1974 3.896V3.824H19.1254ZM10.4134 4.04H10.4854L10.4134 3.968V4.04ZM18.1174 4.112L18.1894 4.184V4.112H18.1174ZM18.4054 4.328L18.4774 4.4V4.328H18.4054ZM11.8534 5.84H11.7814V5.912L11.8534 5.84ZM11.6374 5.984H11.7094L11.6374 5.912V5.984ZM10.4134 6.056V6.128L10.4854 6.056H10.4134ZM10.1254 6.704V6.632V6.704ZM9.69337 6.92H9.83738H9.69337ZM11.1334 7.568V7.64L11.2054 7.568H11.1334ZM25.1734 7.568V7.712L25.2454 7.568H25.1734ZM10.9174 7.784L10.9894 7.712H10.9174V7.784ZM25.0294 7.784L25.1014 7.856V7.784H25.0294ZM10.7734 7.928L10.5574 8.072L10.6294 8.144L10.8454 7.928L10.7734 7.856V7.928ZM10.4134 8.216H10.4854L10.4134 8.144V8.216ZM14.6614 9.44H14.7334V9.368L14.6614 9.44ZM14.5894 9.656V9.512V9.656ZM23.5894 10.16H23.6614V10.088L23.5894 10.16ZM23.4454 10.232V10.304L23.5174 10.232H23.4454ZM9.40538 11.384H9.47738L9.40538 11.312V11.384ZM17.9734 11.312L18.1894 11.456L17.9734 11.384V11.312ZM23.0854 11.384H23.1574V11.312L23.0854 11.384ZM17.6134 11.456H17.6854V11.384L17.6134 11.456ZM7.89338 12.176V12.104V12.176ZM17.9014 12.176H17.8294V12.104L17.9014 12.176ZM17.6854 12.392H17.6134L17.6854 12.32V12.392ZM24.9574 12.392L24.8854 12.32V12.392H24.9574ZM24.7414 12.464V12.536L24.8134 12.464H24.7414ZM24.6694 12.608V12.536V12.608ZM12.2854 12.752L11.9254 12.968L12.1414 13.112H12.2854L12.5014 12.896V12.752H12.2854ZM23.3734 13.4H23.2294H23.3734ZM24.1654 13.4V13.328V13.4ZM5.58938 14.192H5.66138L6.23738 13.616L6.16538 13.472C5.94938 13.688 5.73338 13.976 5.58938 14.192ZM6.66938 13.904V13.832V13.904ZM5.44538 14.264V14.336V14.264ZM5.30138 14.408H5.37338V14.336L5.30138 14.408ZM5.15738 14.624V14.552V14.624ZM9.40538 14.624H9.47738L9.40538 14.552V14.624ZM4.94138 14.696V14.768V14.696ZM4.79738 14.984V14.84V14.984ZM24.5254 17.36H24.5974V17.288L24.5254 17.36ZM24.3094 17.432L24.3814 17.504V17.432H24.3094ZM26.3974 17.432V17.504V17.432ZM20.0614 18.08L19.8454 18.224L19.9174 18.296L20.1334 18.08H20.0614ZM19.7734 18.368H19.8454L19.7734 18.296V18.368ZM26.5414 18.656L26.6134 18.728V18.656H26.5414ZM4.65338 19.16L4.43738 19.376H4.65338L4.86938 19.16H4.65338ZM1.26938 19.448V19.592H1.41338V19.448H1.26938ZM28.6294 19.88V19.952V19.88ZM1.41338 20.024L1.26938 20.096H1.41338V20.024ZM2.06138 20.168L2.13338 20.24V20.168H2.06138ZM25.6774 20.888V20.96V20.888ZM4.07738 21.032H4.14938V20.96L4.07738 21.032ZM28.7014 21.104V21.176L28.7734 21.104H28.7014ZM17.1094 21.176V21.248L17.1814 21.176H17.1094ZM28.4134 21.32V21.392L28.6294 21.176H28.5574L28.4134 21.32ZM3.86137 22.256H3.71738H3.86137ZM18.3334 22.4V22.472L18.4054 22.4H18.3334ZM18.1174 22.616H18.1894L18.1174 22.544V22.616ZM18.0454 22.76L17.9734 22.688V22.76H18.0454ZM1.12538 22.904L1.19738 22.976V22.904H1.12538ZM15.5974 23.48H15.6694L15.5974 23.408V23.48ZM17.3254 23.48V23.408L17.2534 23.48H17.3254ZM29.1334 23.48V23.408V23.48ZM17.1094 23.624H17.1814L17.1094 23.552V23.624ZM28.9174 23.624V23.696L28.9894 23.624H28.9174ZM29.1334 24.992V24.92V24.992ZM14.5894 25.208H14.6614L14.5894 25.136V25.208ZM15.0934 25.352H15.1654L15.0934 25.28V25.352ZM15.5974 25.496H15.6694L15.5974 25.424V25.496ZM15.3814 25.568V25.712L15.5254 25.568H15.3814ZM15.8854 25.712H15.9574V25.64L15.8854 25.712ZM0.189375 26H0.117375L0.189375 25.928V26ZM4.00538 27.08V26.936V27.08ZM28.7734 27.008H28.8454V26.936L28.7734 27.008ZM2.20538 27.728L1.70138 28.232H1.77338L2.27738 27.728H2.20538ZM28.1254 28.232V28.16V28.232ZM1.55738 28.448V28.304V28.448ZM25.4614 28.448H25.5334L25.4614 28.376V28.448ZM25.2454 28.592V28.448V28.592ZM25.1014 28.664L24.9574 28.736H25.1014V28.664ZM1.12538 28.808V28.664V28.808ZM28.3414 28.736H28.2694L28.3414 28.664V28.736ZM24.3094 29.24H24.3814H24.3094ZM25.8934 29.456V29.384V29.456ZM24.6694 29.528H24.5974V29.6L24.6694 29.528ZM25.6774 29.528V29.6V29.528ZM26.9014 30.464L26.5414 30.824L26.9734 30.464H26.9014ZM6.38138 30.68H6.30938L6.38138 30.608V30.68ZM26.6854 31.04L26.8294 31.184V31.04H26.6854ZM6.59738 31.256H6.45338H6.59738ZM7.38938 31.472V31.544V31.472ZM26.3974 31.472V31.544V31.472ZM7.74938 31.76L7.67738 31.832V31.76H7.74938ZM22.2214 32.264V32.336V32.264ZM23.0854 32.264L23.1574 32.336V32.264H23.0854ZM22.0054 32.48V32.552L22.0774 32.48H22.0054ZM22.9414 32.48V32.552V32.48ZM19.8454 32.696H19.9174H19.8454ZM4.14938 33.416V33.272V33.416ZM9.40538 33.272V33.416L9.54938 33.272H9.40538ZM9.33338 33.488H9.18938H9.33338ZM9.11738 33.632L9.04538 33.704H9.11738V33.632ZM8.90138 33.848L8.68538 33.992H8.82938L8.90138 33.92V33.848ZM4.94138 33.992V34.064V33.992ZM11.4214 33.992V34.064L11.4934 33.992H11.4214ZM11.9254 33.992V34.064L11.9974 33.992H11.9254ZM12.5734 33.992H12.5014V34.064L12.5734 33.992ZM8.61337 34.136V34.064V34.136ZM12.3574 34.136L12.2854 34.208H12.3574V34.136ZM8.46938 34.208V34.28L8.54138 34.208H8.46938ZM8.39738 34.352V34.28V34.352ZM12.1414 34.424L12.2134 34.352H12.1414V34.424ZM12.6454 34.424L12.7174 34.352H12.6454V34.424ZM7.38938 35V35.144L7.46138 35H7.38938ZM22.0054 35.072H22.1494H22.0054ZM7.24538 35.216L7.31738 35.288V35.216H7.24538ZM6.88538 35.36V35.288V35.36ZM15.5974 36.08H15.6694L15.5974 36.008V36.08ZM8.39738 36.224V36.296V36.224ZM16.8214 36.656L16.8934 36.584H16.8214V36.656ZM9.26138 36.728L9.18938 36.8V36.728H9.26138ZM11.4214 37.088H11.4934L11.4214 37.016V37.088ZM14.3734 37.304L14.4454 37.232H14.3734V37.304Z" fill="white"/>
</svg>
