<svg width="20" height="25" viewBox="0 0 20 25" fill="none" xmlns="http://www.w3.org/2000/svg">
<path d="M6.79825 3.752L6.41425 3.944V3.656C6.55825 3.416 6.55825 3.08 6.55825 2.84C6.60625 2.744 6.65425 2.648 6.75025 2.552V2.408C7.18225 1.448 8.47825 0.295999 9.63025 0.295999H10.6863C10.8303 0.295999 10.9743 0.439999 11.0703 0.535999C11.2143 0.439999 11.3583 0.343998 11.5023 0.343998V0.584H11.9823C12.0782 0.679998 12.1263 0.775999 12.1743 0.871999H12.3663C12.6063 0.967999 12.9423 1.16 13.0383 1.352L13.2783 1.4L13.3263 1.496V1.832L13.5182 1.928L13.4703 2.216L13.5182 2.408L13.1343 2.84C12.9423 2.888 12.7983 2.984 12.6063 2.984L12.4623 2.744L12.1263 2.648L11.8863 2.408H11.7903C11.6463 2.36 11.5503 2.264 11.4062 2.216V1.928L11.2143 2.168C10.9743 2.024 10.4463 2.072 10.1583 2.072C9.48625 2.072 8.38225 2.984 8.38225 3.416C8.38225 3.752 8.57425 4.04 8.52625 4.376L8.67025 4.568L8.62225 4.712H8.76625L8.91025 4.664V4.856C9.15025 4.952 9.34225 5.144 9.53425 5.336L9.48625 5.72L9.91825 5.672C10.0623 5.72 10.2063 5.768 10.2543 5.864C10.4463 5.912 10.7343 6.008 10.8303 6.152L11.1663 6.2L11.5023 6.536L11.7903 6.632L11.6943 6.776V6.824L11.8863 6.968L11.8383 7.112V7.16C11.8863 7.256 11.9343 7.352 12.0303 7.448H11.8863V7.592H11.6943L11.7903 7.688C11.5023 7.784 11.2143 8.024 11.0223 8.264L10.3503 8.36V8.12H10.2543L10.0623 8.312H9.53425V8.168L9.39025 8.12C9.05425 8.408 8.62225 8.456 8.23825 8.648H7.90225C7.66225 8.84 7.13425 9.176 6.79825 9.128C5.83825 9.704 4.78225 10.376 4.06225 11.24C4.06225 11.432 3.87025 11.672 3.82225 11.864L3.48625 12.248V12.392L3.10225 12.776C3.10225 13.256 3.10225 13.256 2.81425 13.592L2.95825 13.688V13.784C2.86225 13.928 2.71825 14.168 2.71825 14.36L2.67025 14.312C2.57425 14.312 2.62225 14.456 2.67025 14.504L2.62225 14.6V14.648L2.67025 14.744L2.57425 15.032V15.224C2.47825 15.368 2.43025 15.512 2.43025 15.656V15.704L2.57425 15.896L2.52625 16.232V16.904L2.62225 17L2.57425 17.144C2.62225 17.192 2.71825 17.384 2.76625 17.48V17.528C2.76625 17.72 2.86225 17.864 2.95825 18.008C2.95825 18.104 2.95825 18.248 2.91025 18.344V18.488L3.10225 18.392C3.10225 18.584 3.53425 19.256 3.63025 19.352V19.496L3.91825 19.544L4.06225 19.832L4.01425 19.88C4.01425 19.976 4.06225 20.072 4.11025 20.168C4.25425 20.216 4.35025 20.36 4.44625 20.456L4.59025 20.36H4.63825L4.78225 20.504V20.552C4.78225 20.696 4.83025 20.84 4.92625 20.936H5.07025V21.128H5.11825L5.35825 21.032C5.59825 21.032 5.64625 21.272 5.55025 21.416L5.59825 21.464L5.79025 21.416C5.98225 21.512 6.17425 21.608 6.41425 21.656V21.8L6.55825 21.752H6.60625L6.75025 21.8H7.03825L7.08625 21.848V22.088L7.42225 21.992C7.56625 22.04 7.66225 22.136 7.71025 22.28L7.90225 22.136H8.04625L8.09425 22.28L8.23825 22.232H9.05425L9.10225 22.28L9.39025 22.328C9.87025 22.088 9.72625 22.28 10.1103 22.28H10.2543C10.4463 22.184 10.8303 21.992 10.9743 21.992H11.0223L11.0703 22.136C11.2143 21.992 11.4062 21.992 11.5503 21.992C11.8863 21.992 12.1263 21.896 12.3663 21.656H12.7983C12.9423 21.608 13.0863 21.416 13.1823 21.272L13.3263 21.32H13.7103C14.4783 20.6 15.4383 20.072 16.1103 19.304V19.16L16.1583 19.016L16.3503 19.112H16.3983L16.5903 18.968L16.5423 18.872H16.4463V18.824C16.6383 18.488 16.9263 18.2 17.1183 17.864C17.4063 17.432 17.3583 16.76 17.6463 16.328V16.04L17.7903 15.752V15.32L17.8863 15.176V14.84L17.7423 14.744L17.5983 14.216L17.4543 14.168V13.928L17.3103 13.784L17.4063 13.688L17.1663 13.544V13.352L16.9263 13.256C16.8783 13.112 16.8303 12.968 16.7343 12.872H16.4463C16.2063 12.872 15.9663 12.824 15.7743 12.776L15.5823 12.872L15.4383 12.776L15.4863 12.632H15.4383C15.2943 12.632 15.0063 12.92 14.8623 13.064L14.7663 12.872C14.3343 13.256 13.2783 13.832 13.0383 14.168V14.264C12.6543 14.6 11.8863 15.416 11.6463 15.848L11.6943 15.992C11.4543 16.328 11.0223 16.808 10.6383 17L10.5423 16.856L10.2543 17.144L10.2063 17V16.856L9.91825 16.664L10.0143 16.808L9.87025 16.712L9.63025 16.808L9.53425 16.424V16.376L9.82225 15.896V15.848L9.67825 15.656L9.96625 15.32H10.1103L10.0623 15.176L10.2063 14.936C10.2543 14.12 11.0703 13.976 11.2143 13.256C11.6463 12.872 11.9823 12.44 12.3663 12.056L12.5103 12.104H12.5583C12.7023 12.008 12.8463 11.864 12.9423 11.72L13.4703 11.432V11.624H13.5182L13.8063 11.288V11.24C13.9023 11.096 13.9983 10.904 13.9983 10.76C14.1423 10.664 14.3823 10.424 14.4303 10.28L14.5263 10.328L14.4783 10.136C14.6223 9.944 14.7663 9.704 14.8143 9.464V9.368C14.8143 9.176 14.8623 8.984 14.9583 8.84V8.6C15.0063 8.456 15.0543 8.36 15.1503 8.264L15.0063 8.12C15.1023 7.832 15.1983 7.544 15.3423 7.304L15.2943 7.208L15.3423 6.872L15.5823 6.632L15.4383 6.536V6.44C15.4383 6.2 15.5823 5.816 15.6783 5.624C15.6783 5.48 15.6303 5.336 15.6303 5.24V5.192C15.7263 5.096 15.8223 5 15.9183 4.856V4.808L15.7743 4.712C15.8223 4.52 16.0623 4.376 16.2543 4.232V4.376L15.9663 4.712H16.0143L16.4463 4.376H16.5903L16.7823 4.232L16.9263 4.664H17.0703C17.2623 4.808 17.3103 5.048 17.3103 5.288C17.3103 5.528 17.2143 5.768 17.1183 5.96V6.296L16.8303 6.632H17.1183C17.1183 6.824 17.0223 7.016 17.0703 7.256C16.9743 7.448 16.8303 7.64 16.7343 7.784L16.7823 7.832C16.7823 8.12 16.6863 8.408 16.7343 8.744L16.6383 8.792L16.5903 9.176L16.3983 9.464V9.752C16.2543 9.848 16.1583 9.992 16.1103 10.136V10.28H16.2543C16.1583 10.472 16.0623 10.616 15.9663 10.808C16.0623 10.856 16.1583 10.904 16.2543 10.904H16.3023L16.5903 10.76V11.048H17.0703L17.1663 11.096C17.3583 11.048 17.5503 11.096 17.6463 11.24C17.8383 11.24 18.0783 11.432 18.2223 11.576C18.0303 11.624 17.8863 11.816 17.7903 11.96V12.056L18.2223 11.72L18.3183 11.768L18.2703 11.912H18.4623C18.6063 12.008 18.6543 12.2 18.7503 12.296L19.0383 12.44L18.9903 12.68L19.1343 12.632C19.1823 12.776 19.2783 12.872 19.3743 12.92C19.4223 13.064 19.4703 13.256 19.4223 13.4L19.5663 13.592L19.6143 14.264L19.7583 14.408V15.224L19.9023 15.176V15.224C19.9023 15.416 19.5663 16.088 19.7103 16.184V16.328C19.7103 16.712 19.6623 17.336 19.2783 17.528V17.624L19.4223 17.672C19.2783 18.056 18.8463 18.44 18.7503 18.824L18.7983 18.872C18.7503 19.064 18.6543 19.16 18.5583 19.304C18.5103 19.352 18.5583 19.448 18.6063 19.496C18.6063 20.024 15.8223 22.52 15.2463 22.76L15.1503 22.664L15.2463 22.616L15.1503 22.568C15.0063 22.616 14.8623 22.712 14.7663 22.808L14.6223 22.76C14.4783 22.856 14.3343 23 14.2863 23.144H14.4783L14.4303 23.288L14.2863 23.384L14.1903 23.24H14.1423L13.7103 23.48V23.24C13.2303 23.384 12.2703 24.296 11.8383 24.248L11.8863 24.056H11.8383L11.6943 24.152V24.296C11.5983 24.344 11.4543 24.392 11.3103 24.392H11.1663L11.0703 24.296H11.0223C10.7343 24.488 10.3983 24.536 10.0623 24.536L9.82225 24.632H9.67825L9.34225 24.488C9.39025 24.536 9.39025 24.632 9.39025 24.68C9.24625 24.68 9.29425 24.488 9.05425 24.632H8.67025L8.43025 24.536H7.61425L7.56625 24.44H7.42225L7.18225 24.296H6.79825L6.75025 24.248L6.60625 24.296H6.46225L6.55825 24.152V24.056L6.27025 24.104L6.12625 24.056L6.03025 24.104H5.93425L5.79025 23.912L5.64625 23.96L5.40625 23.816L5.26225 23.624H5.07025L4.92625 23.48H4.68625L4.78225 23.24L4.63825 23.144L4.59025 23H4.54225C4.39825 23 4.30225 23.144 4.15825 23.144H4.11025L3.96625 23L4.01425 22.76L3.63025 22.808C3.48625 22.616 3.24625 22.472 3.00625 22.328L2.95825 22.136H2.76625L2.33425 21.8V21.656C2.23825 21.56 2.14225 21.464 1.99825 21.416L1.85425 21.128L1.66225 20.984V20.84C1.51825 20.792 1.42225 20.696 1.32625 20.6C1.32625 20.456 1.23025 20.216 1.13425 20.12V20.024L1.32625 19.832H0.94225C0.89425 19.688 0.84625 19.544 0.84625 19.352L0.70225 19.304L0.65425 19.16V18.872C0.36625 18.68 0.27025 18.344 0.31825 18.008L0.36625 17.864C0.31825 17.576 0.22225 17.288 0.27025 17L0.12625 16.808V16.712L0.17425 16.568V16.328L0.27025 16.184V16.136L0.12625 15.896V15.8C0.12625 15.464 0.22225 15.176 0.17425 14.84C0.27025 14.552 0.36625 14.168 0.51025 13.928L0.36625 13.784L0.46225 13.544L0.79825 13.112L0.65425 13.064V13.016L0.79825 12.776L0.70225 12.632C0.70225 11.672 1.80625 11.432 2.28625 10.76L2.23825 10.712H2.09425L1.75825 10.904L1.71025 10.856L2.57425 9.8L2.67025 9.896H2.76625L2.91025 9.752L2.81425 9.608H2.95825V9.464H3.10225V9.416C3.67825 8.6 5.35825 7.4 6.27025 7.016L6.41425 7.112C6.60625 6.968 6.79825 6.872 6.94225 6.776C7.03825 6.728 7.13425 6.728 7.18225 6.824H7.23025C7.37425 6.728 7.71025 6.584 7.71025 6.44C7.71025 6.248 7.56625 6.344 7.51825 6.2V5.96L7.42225 5.864L7.47025 5.768L7.37425 5.72L7.18225 5.816L7.08625 5.72V5.624L6.94225 5.528L6.89425 5.384V5.144L6.75025 5.192L6.70225 5.048V4.856L6.46225 4.664V4.568L6.60625 4.376V4.136L6.89425 3.8L6.79825 3.752ZM9.24625 0.679998V0.584V0.679998ZM12.1263 0.92L12.0303 1.016H12.1263V0.92ZM11.9343 1.064L11.9823 1.112V1.064H11.9343ZM11.8863 1.112V1.16L11.9343 1.112H11.8863ZM8.04625 1.208V1.16V1.208ZM11.7903 1.208V1.256L11.8383 1.208H11.7903ZM7.75825 1.4V1.496L7.85425 1.4H7.75825ZM7.61425 1.544H7.66225L7.61425 1.496V1.544ZM7.42225 1.688L7.51825 1.736L7.42225 1.88H7.51825L7.56625 1.832V1.736L7.51825 1.688H7.42225ZM8.67025 1.928V1.832V1.928ZM7.37425 1.928L7.27825 2.024H7.37425V1.928ZM8.57425 2.024V1.928V2.024ZM11.0703 2.024H11.1183L11.0703 1.976V2.024ZM7.23025 2.072V2.12V2.072ZM8.43025 2.168V2.072V2.168ZM12.4143 2.072L12.4623 2.12V2.072H12.4143ZM12.8943 2.072L12.9423 2.12V2.072H12.8943ZM7.08625 2.216V2.264V2.216ZM8.33425 2.264V2.168V2.264ZM12.7503 2.216L12.7983 2.264V2.216H12.7503ZM6.94225 2.36H6.99025L6.94225 2.312V2.36ZM12.0782 2.408L12.1263 2.456V2.408H12.0782ZM12.2703 2.552L12.3183 2.6V2.552H12.2703ZM7.90225 3.56H7.85425V3.608L7.90225 3.56ZM7.75825 3.656H7.80625L7.75825 3.608V3.656ZM6.94225 3.704V3.752L6.99025 3.704H6.94225ZM6.75025 4.136V4.088V4.136ZM6.46225 4.28H6.55825H6.46225ZM7.42225 4.712V4.76L7.47025 4.712H7.42225ZM16.7823 4.712V4.808L16.8303 4.712H16.7823ZM7.27825 4.856L7.32625 4.808H7.27825V4.856ZM16.6863 4.856L16.7343 4.904V4.856H16.6863ZM7.18225 4.952L7.03825 5.048L7.08625 5.096L7.23025 4.952L7.18225 4.904V4.952ZM6.94225 5.144H6.99025L6.94225 5.096V5.144ZM9.77425 5.96H9.82225V5.912L9.77425 5.96ZM9.72625 6.104V6.008V6.104ZM15.7263 6.44H15.7743V6.392L15.7263 6.44ZM15.6303 6.488V6.536L15.6783 6.488H15.6303ZM6.27025 7.256H6.31825L6.27025 7.208V7.256ZM11.9823 7.208L12.1263 7.304L11.9823 7.256V7.208ZM15.3903 7.256H15.4383V7.208L15.3903 7.256ZM11.7422 7.304H11.7903V7.256L11.7422 7.304ZM5.26225 7.784V7.736V7.784ZM11.9343 7.784H11.8863V7.736L11.9343 7.784ZM11.7903 7.928H11.7422L11.7903 7.88V7.928ZM16.6383 7.928L16.5903 7.88V7.928H16.6383ZM16.4943 7.976V8.024L16.5423 7.976H16.4943ZM16.4463 8.072V8.024V8.072ZM8.19025 8.168L7.95025 8.312L8.09425 8.408H8.19025L8.33425 8.264V8.168H8.19025ZM15.5823 8.6H15.4863H15.5823ZM16.1103 8.6V8.552V8.6ZM3.72625 9.128H3.77425L4.15825 8.744L4.11025 8.648C3.96625 8.792 3.82225 8.984 3.72625 9.128ZM4.44625 8.936V8.888V8.936ZM3.63025 9.176V9.224V9.176ZM3.53425 9.272H3.58225V9.224L3.53425 9.272ZM3.43825 9.416V9.368V9.416ZM6.27025 9.416H6.31825L6.27025 9.368V9.416ZM3.29425 9.464V9.512V9.464ZM3.19825 9.656V9.56V9.656ZM16.3503 11.24H16.3983V11.192L16.3503 11.24ZM16.2063 11.288L16.2543 11.336V11.288H16.2063ZM17.5983 11.288V11.336V11.288ZM13.3743 11.72L13.2303 11.816L13.2783 11.864L13.4223 11.72H13.3743ZM13.1823 11.912H13.2303L13.1823 11.864V11.912ZM17.6943 12.104L17.7423 12.152V12.104H17.6943ZM3.10225 12.44L2.95825 12.584H3.10225L3.24625 12.44H3.10225ZM0.84625 12.632V12.728H0.94225V12.632H0.84625ZM19.0863 12.92V12.968V12.92ZM0.94225 13.016L0.84625 13.064H0.94225V13.016ZM1.37425 13.112L1.42225 13.16V13.112H1.37425ZM17.1183 13.592V13.64V13.592ZM2.71825 13.688H2.76625V13.64L2.71825 13.688ZM19.1343 13.736V13.784L19.1823 13.736H19.1343ZM11.4062 13.784V13.832L11.4543 13.784H11.4062ZM18.9423 13.88V13.928L19.0863 13.784H19.0383L18.9423 13.88ZM2.57425 14.504H2.47825H2.57425ZM12.2223 14.6V14.648L12.2703 14.6H12.2223ZM12.0782 14.744H12.1263L12.0782 14.696V14.744ZM12.0303 14.84L11.9823 14.792V14.84H12.0303ZM0.75025 14.936L0.79825 14.984V14.936H0.75025ZM10.3983 15.32H10.4463L10.3983 15.272V15.32ZM11.5503 15.32V15.272L11.5023 15.32H11.5503ZM19.4223 15.32V15.272V15.32ZM11.4062 15.416H11.4543L11.4062 15.368V15.416ZM19.2783 15.416V15.464L19.3263 15.416H19.2783ZM19.4223 16.328V16.28V16.328ZM9.72625 16.472H9.77425L9.72625 16.424V16.472ZM10.0623 16.568H10.1103L10.0623 16.52V16.568ZM10.3983 16.664H10.4463L10.3983 16.616V16.664ZM10.2543 16.712V16.808L10.3503 16.712H10.2543ZM10.5903 16.808H10.6383V16.76L10.5903 16.808ZM0.12625 17H0.07825L0.12625 16.952V17ZM2.67025 17.72V17.624V17.72ZM19.1823 17.672H19.2303V17.624L19.1823 17.672ZM1.47025 18.152L1.13425 18.488H1.18225L1.51825 18.152H1.47025ZM18.7503 18.488V18.44V18.488ZM1.03825 18.632V18.536V18.632ZM16.9743 18.632H17.0223L16.9743 18.584V18.632ZM16.8303 18.728V18.632V18.728ZM16.7343 18.776L16.6383 18.824H16.7343V18.776ZM0.75025 18.872V18.776V18.872ZM18.8943 18.824H18.8463L18.8943 18.776V18.824ZM16.2063 19.16H16.2543H16.2063ZM17.2623 19.304V19.256V19.304ZM16.4463 19.352H16.3983V19.4L16.4463 19.352ZM17.1183 19.352V19.4V19.352ZM17.9343 19.976L17.6943 20.216L17.9823 19.976H17.9343ZM4.25425 20.12H4.20625L4.25425 20.072V20.12ZM17.7903 20.36L17.8863 20.456V20.36H17.7903ZM4.39825 20.504H4.30225H4.39825ZM4.92625 20.648V20.696V20.648ZM17.5983 20.648V20.696V20.648ZM5.16625 20.84L5.11825 20.888V20.84H5.16625ZM14.8143 21.176V21.224V21.176ZM15.3903 21.176L15.4383 21.224V21.176H15.3903ZM14.6703 21.32V21.368L14.7183 21.32H14.6703ZM15.2943 21.32V21.368V21.32ZM13.2303 21.464H13.2783H13.2303ZM2.76625 21.944V21.848V21.944ZM6.27025 21.848V21.944L6.36625 21.848H6.27025ZM6.22225 21.992H6.12625H6.22225ZM6.07825 22.088L6.03025 22.136H6.07825V22.088ZM5.93425 22.232L5.79025 22.328H5.88625L5.93425 22.28V22.232ZM3.29425 22.328V22.376V22.328ZM7.61425 22.328V22.376L7.66225 22.328H7.61425ZM7.95025 22.328V22.376L7.99825 22.328H7.95025ZM8.38225 22.328H8.33425V22.376L8.38225 22.328ZM5.74225 22.424V22.376V22.424ZM8.23825 22.424L8.19025 22.472H8.23825V22.424ZM5.64625 22.472V22.52L5.69425 22.472H5.64625ZM5.59825 22.568V22.52V22.568ZM8.09425 22.616L8.14225 22.568H8.09425V22.616ZM8.43025 22.616L8.47825 22.568H8.43025V22.616ZM4.92625 23V23.096L4.97425 23H4.92625ZM14.6703 23.048H14.7663H14.6703ZM4.83025 23.144L4.87825 23.192V23.144H4.83025ZM4.59025 23.24V23.192V23.24ZM10.3983 23.72H10.4463L10.3983 23.672V23.72ZM5.59825 23.816V23.864V23.816ZM11.2143 24.104L11.2623 24.056H11.2143V24.104ZM6.17425 24.152L6.12625 24.2V24.152H6.17425ZM7.61425 24.392H7.66225L7.61425 24.344V24.392ZM9.58225 24.536L9.63025 24.488H9.58225V24.536Z" fill="#B8724C"/>
</svg>
