<svg width="385" height="40" viewBox="0 0 385 40" fill="none" xmlns="http://www.w3.org/2000/svg">
<path d="M21.0897 29.72H21.6177L20.9937 35H0.353741V34.136C9.08974 24.92 16.7217 19.256 17.2017 10.568C17.4417 5.624 15.1377 1.736 10.3857 1.736C6.73774 1.688 4.86574 4.232 4.76974 6.296C4.72174 6.968 4.57774 7.784 4.00174 8.36C3.47374 8.84 2.46574 8.888 1.84174 8.36C1.02574 7.64 1.07374 6.68 1.50574 5.672C2.41774 3.56 5.63374 0.919998 10.3857 0.919998C16.5777 0.919998 20.9457 4.424 20.4177 10.568C19.6497 19.112 10.1457 25.832 2.27374 33.176H15.2337C19.2177 33.176 20.4177 31.88 21.0897 29.72ZM35.4627 1.4H55.5267V2.312C48.9027 8.936 45.6387 24.536 45.3987 32.408C45.3507 35 44.7267 35.48 43.8627 35.48C42.9987 35.48 42.0867 35.24 42.1827 33.464C42.5667 24.344 47.0787 11 53.7507 3.224H41.2707C37.2387 3.224 36.0867 4.568 35.3667 6.728H34.8387L35.4627 1.4ZM88.8781 1.4H91.7101V39.992H88.8781V1.4ZM136.8 0.919998C144.144 0.919998 149.04 7.784 149.04 18.2C149.04 28.664 144.144 35.48 136.8 35.48C129.504 35.48 124.608 28.664 124.608 18.2C124.608 7.784 129.504 0.919998 136.8 0.919998ZM136.8 34.664C142.08 34.664 145.824 29.048 145.824 18.2C145.824 7.4 142.08 1.784 136.8 1.784C131.568 1.784 127.776 7.4 127.776 18.2C127.776 29.048 131.568 34.664 136.8 34.664ZM174.869 17C181.541 17.864 184.709 21.128 184.709 25.784C184.709 31.64 180.245 35.48 173.429 35.48C168.149 35.48 163.733 32.552 162.821 30.44C162.389 29.432 162.341 28.472 163.157 27.8C163.781 27.224 164.789 27.272 165.317 27.8C165.893 28.328 166.037 29.144 166.085 29.816C166.181 31.88 169.253 34.712 173.429 34.712C178.613 34.712 181.445 31.544 181.445 26.024C181.445 20.744 178.229 17.48 171.173 17.48V16.76C175.541 16.664 179.237 13.832 179.237 8.696C179.237 4.184 176.837 1.736 173.333 1.736C169.877 1.736 168.053 4.232 167.957 6.296C167.909 6.968 167.765 7.784 167.189 8.36C166.661 8.84 165.653 8.888 165.029 8.36C164.213 7.64 164.261 6.68 164.693 5.672C165.605 3.56 168.917 0.919998 173.237 0.919998C178.085 0.919998 182.501 3.752 182.501 8.696C182.501 12.584 179.525 15.848 174.869 17ZM218.066 1.4H220.898V39.992H218.066V1.4ZM275.012 29.72H275.54L274.916 35H254.276V34.136C263.012 24.92 270.644 19.256 271.124 10.568C271.364 5.624 269.06 1.736 264.308 1.736C260.66 1.688 258.788 4.232 258.692 6.296C258.644 6.968 258.5 7.784 257.924 8.36C257.396 8.84 256.388 8.888 255.764 8.36C254.948 7.64 254.996 6.68 255.428 5.672C256.34 3.56 259.556 0.919998 264.308 0.919998C270.5 0.919998 274.868 4.424 274.34 10.568C273.572 19.112 264.068 25.832 256.196 33.176H269.156C273.14 33.176 274.34 31.88 275.012 29.72ZM301.181 0.919998C308.525 0.919998 313.421 7.784 313.421 18.2C313.421 28.664 308.525 35.48 301.181 35.48C293.885 35.48 288.989 28.664 288.989 18.2C288.989 7.784 293.885 0.919998 301.181 0.919998ZM301.181 34.664C306.461 34.664 310.205 29.048 310.205 18.2C310.205 7.4 306.461 1.784 301.181 1.784C295.949 1.784 292.157 7.4 292.157 18.2C292.157 29.048 295.949 34.664 301.181 34.664ZM347.133 29.72H347.661L347.037 35H326.397V34.136C335.133 24.92 342.765 19.256 343.245 10.568C343.485 5.624 341.181 1.736 336.429 1.736C332.781 1.688 330.909 4.232 330.813 6.296C330.765 6.968 330.621 7.784 330.045 8.36C329.517 8.84 328.509 8.888 327.885 8.36C327.069 7.64 327.117 6.68 327.549 5.672C328.461 3.56 331.677 0.919998 336.429 0.919998C342.621 0.919998 346.989 4.424 346.461 10.568C345.693 19.112 336.189 25.832 328.317 33.176H341.277C345.261 33.176 346.461 31.88 347.133 29.72ZM373.495 13.88C379.639 13.736 384.727 17.864 384.583 24.536C384.391 31.16 379.543 35.48 373.351 35.48C367.303 35.48 361.975 30.92 361.639 23.144C361.063 9.752 366.055 1.304 374.455 0.919998C379.111 0.727998 382.615 2.936 383.527 5.048C383.959 6.056 383.959 7.016 383.191 7.736C382.567 8.264 381.511 8.216 380.983 7.736C380.455 7.16 380.263 6.344 380.263 5.672C380.119 3.608 378.199 1.448 374.311 1.736C369.223 2.12 365.239 7.112 364.567 19.016C366.679 15.752 369.847 13.928 373.495 13.88ZM373.351 34.664C378.103 34.664 381.463 30.728 381.463 24.536C381.463 18.344 378.103 14.888 373.351 14.888C368.647 14.888 364.759 18.344 364.759 24.536C364.759 30.728 368.647 34.664 373.351 34.664Z" fill="white"/>
</svg>
